<svg width="36" height="37" viewBox="0 0 36 37" fill="none" xmlns="http://www.w3.org/2000/svg">
<g clip-path="url(#clip0_321_10507)">
<path d="M35.9579 13.1507L35.333 13.5449L32.2203 15.4993L18.8864 23.867L18.7181 23.978L18.682 24.0003L18.003 24.4278L17.979 24.4389L17.4201 24.0891L17.3179 24.0225L4.68696 16.0935L3.82774 15.5549L0.0420469 13.1784L0 13.1507L3.82774 10.7464L17.5464 2.13448H18.4116L32.2203 10.8019L32.677 11.0907L35.9579 13.1507Z" fill="#C0874A"/>
<path d="M32.8961 2.06957V29.0599C32.8961 29.6791 32.3421 30.1838 31.6558 30.1838H4.37956C3.69957 30.1838 3.14551 29.6791 3.14551 29.0599V2.06957C3.14551 1.44456 3.69957 0.940002 4.37956 0.940002H31.6558C32.342 0.940002 32.8961 1.44456 32.8961 2.06957Z" fill="#69B25F"/>
<path d="M21.1851 6.22055H7.79004V8.00494H21.1851V6.22055Z" fill="#A2CC86"/>
<path d="M21.1851 5.93874H7.79004V7.72313H21.1851V5.93874Z" fill="#53A654"/>
<path d="M28.1456 16.0348H7.79004V17.8192H28.1456V16.0348Z" fill="#A2CC86"/>
<path d="M28.1456 15.7531H7.79004V17.5375H28.1456V15.7531Z" fill="#53A654"/>
<path d="M28.1456 20.942H7.79004V22.7264H28.1456V20.942Z" fill="#A2CC86"/>
<path d="M28.1456 20.6603H7.79004V22.4447H28.1456V20.6603Z" fill="#53A654"/>
<path d="M28.1456 11.1277H7.79004V12.912H28.1456V11.1277Z" fill="#A2CC86"/>
<path d="M28.1456 10.8459H7.79004V12.6303H28.1456V10.8459Z" fill="#53A654"/>
<path d="M18.021 23.5889L17.8107 23.7129L13.7425 26.0881L13.2437 26.3824L0.871258 33.606L0.0419922 34.0862V13.0917L5.02349 15.9988L17.342 23.1914L17.4381 23.2482L18.003 23.5786L18.021 23.5889Z" fill="#F0BA7D"/>
<path d="M35.8759 12.7028C35.9442 12.6629 36 12.695 36 12.774V33.4864C36 33.5654 35.9986 33.6289 35.997 33.6274C35.9953 33.626 35.9872 33.6202 35.9789 33.6145C35.9706 33.6088 35.9584 33.6006 35.9518 33.5964C35.9452 33.5921 35.9385 33.5887 35.9368 33.5887C35.9351 33.5887 35.8779 33.5561 35.8097 33.5163L18.6678 23.5098C18.5996 23.47 18.4881 23.4046 18.42 23.3644L18.361 23.3296C18.293 23.2895 18.1886 23.2276 18.1292 23.1921C18.0697 23.1566 18.0769 23.0951 18.1453 23.0554L18.5818 22.802C18.6502 22.7623 18.7101 22.7275 18.7151 22.7247C18.7201 22.7219 18.7281 22.7172 18.7331 22.7144C18.7381 22.7116 18.798 22.6768 18.8664 22.637L19.2489 22.4148C19.3172 22.3751 19.4289 22.31 19.4971 22.2701L35.8759 12.7028Z" fill="#E5A864"/>
<path opacity="0.68" d="M26.518 8.90549C28.0008 8.90549 29.2029 7.70339 29.2029 6.22054C29.2029 4.73768 28.0008 3.53558 26.518 3.53558C25.0351 3.53558 23.833 4.73768 23.833 6.22054C23.833 7.70339 25.0351 8.90549 26.518 8.90549Z" fill="#EEF3CA"/>
<path d="M35.9999 30.8405V34.0613H35.9639L35.4471 34.0854H1.94683L1.92285 33.5866C2.52979 33.172 3.33487 32.6131 3.85771 32.2586L3.92978 32.2105L5.6845 31.0027L8.42458 29.1099L9.2177 28.563L17.5402 22.8245L18.099 22.4338C18.2312 22.3498 18.3815 22.2776 18.5437 22.2296C18.736 22.1635 18.9463 22.1214 19.1566 22.1034C19.2287 22.0974 19.2947 22.0914 19.3669 22.0974C19.439 22.0854 19.5112 22.0854 19.5832 22.0854C19.7755 22.0794 19.9619 22.0974 20.1421 22.1334C20.3343 22.1695 20.5086 22.2296 20.6649 22.3137L26.9743 25.823L30.093 27.5595L30.9043 28.0102L33.8426 29.6446L35.7775 30.7202C35.8316 30.7503 35.8917 30.7803 35.9518 30.8164C35.9639 30.8225 35.9819 30.8345 35.9999 30.8405Z" fill="#C0874A"/>
<path d="M35.9999 31.9762V34.0854H0.0419922V31.9762C0.672976 31.5915 1.50224 31.0688 2.04302 30.7443L2.11509 30.6963L3.9238 29.5727L6.75402 27.818L7.57126 27.3073L16.1582 21.9772L16.735 21.6167C17.0355 21.4364 17.4261 21.3463 17.8107 21.3403C17.8827 21.3342 17.9488 21.3342 18.021 21.3403C18.0931 21.3342 18.1652 21.3342 18.2373 21.3403C18.4056 21.3403 18.5679 21.3583 18.7241 21.3943C18.9404 21.4364 19.1387 21.5146 19.307 21.6167L20.1422 22.1335L25.4422 25.4265L28.4707 27.3073L29.258 27.8L32.1183 29.5727L33.999 30.7445C34.0531 30.7746 34.1072 30.8045 34.1672 30.8406C34.5519 31.087 35.0445 31.3935 35.5073 31.6759C35.6754 31.7839 35.8437 31.8861 35.9999 31.9762Z" fill="#ECB168"/>
<path opacity="0.2" d="M32.8931 2.06964V2.37009C32.8931 1.74522 32.3403 1.24045 31.6553 1.24045H4.38036C3.70142 1.24045 3.14258 1.74515 3.14258 2.37009V2.06964C3.14251 1.44471 3.70142 0.940002 4.38036 0.940002H31.6553C32.3403 0.940002 32.8931 1.44471 32.8931 2.06964Z" fill="#BADB9E"/>
</g>
<defs>
<clipPath id="clip0_321_10507">
<rect width="36" height="36" fill="white" transform="translate(0 0.940002)"/>
</clipPath>
</defs>
</svg>
