<svg width="56" height="57" viewBox="0 0 56 57" fill="none" xmlns="http://www.w3.org/2000/svg">
<path d="M28.4 18.7495H53.3477V25.8776H24.8359L28.4 18.7495Z" fill="#FFC61B"/>
<path d="M51.5428 10.5817H21.458V32.0712H51.5428V10.5817Z" fill="white"/>
<path d="M51.5428 10.5817H36.0088V32.0712H51.5428V10.5817Z" fill="#D0D1D3"/>
<path d="M32.9356 21.4494L29.3716 17.8854H18.6797V42.6533C18.6797 44.7211 20.356 46.3973 22.4236 46.3973H50.5754C52.6432 46.3973 54.3194 44.721 54.3194 42.6533V21.4494H32.9356Z" fill="#FFC61B"/>
<path d="M36.0088 21.4494V46.3971H50.5761C52.6439 46.3971 54.3201 44.7209 54.3201 42.6532V21.4494H36.0088Z" fill="#EAA22F"/>
<path d="M50.7558 39.268H43.6279V42.832H50.7558V39.268Z" fill="#41BFC2"/>
</svg>
