<?xml version="1.0" encoding="utf-8"?>
<!-- Generator: Adobe Illustrator 27.5.0, SVG Export Plug-In . SVG Version: 6.00 Build 0)  -->
<svg version="1.1" id="Ñëîé_1" xmlns="http://www.w3.org/2000/svg" xmlns:xlink="http://www.w3.org/1999/xlink" x="0px" y="0px"
	 viewBox="0 0 3300 2000" style="enable-background:new 0 0 3300 2000;" xml:space="preserve">
<rect id="_x31_0" style="fill:#FFFFFF;" width="3300" height="2000"/>
<g>
	<path id="_x39_" style="fill:#A2C3F2;" d="M331.764,1880.06c0,0-323.12-271.895-107.741-640.243S426.855,825.876,385.204,605.65
		C328.066,303.535,527.786,17.385,918.755,259.242c347.652,215.061,428.078,237.14,669.871,194.914
		c241.792-42.226,437.262-298.805,657.574-285.06c332.731,20.758,224.516,459.27,523.783,606.339
		c312.503,153.573,514.034,623.747,263.437,1101.242L331.764,1880.06z"/>
	<g id="_x38_">
		<path style="fill:#FDFFFE;" d="M2204.329,525.29c-3.14,0-6.216,0.269-9.216,0.763c0.287-2.303,0.451-4.643,0.451-7.023
			c0-31.116-25.225-56.341-56.341-56.341c-19.616,0-36.883,10.03-46.973,25.236c-4.127-27.05-27.49-47.773-55.693-47.773
			c-31.116,0-56.341,25.225-56.341,56.341c0,5.683,0.85,11.165,2.415,16.337c-0.802-0.034-1.605-0.061-2.415-0.061
			c-31.116,0-56.341,25.225-56.341,56.341c0,31.116,25.225,56.341,56.341,56.341c12.149,0,23.389-3.858,32.591-10.397
			c12.491,26.141,39.171,44.202,70.075,44.202c33.06,0,61.275-20.676,72.466-49.795c9.694,17.023,27.99,28.511,48.981,28.511
			c31.116,0,56.341-25.225,56.341-56.341C2260.67,550.515,2235.445,525.29,2204.329,525.29z"/>
		<path style="fill:#FDFFFE;" d="M616.062,500.636c2.517,0,4.982,0.216,7.387,0.611c-0.23-1.846-0.362-3.722-0.362-5.63
			c0-24.943,20.22-45.163,45.163-45.163c15.724,0,29.566,8.04,37.654,20.229c3.309-21.683,22.036-38.295,44.644-38.295
			c24.943,0,45.163,20.22,45.163,45.163c0,4.555-0.681,8.95-1.936,13.096c0.642-0.027,1.286-0.049,1.936-0.049
			c24.943,0,45.164,20.22,45.164,45.163c0,24.943-20.22,45.163-45.164,45.163c-9.738,0-18.749-3.092-26.125-8.335
			c-10.013,20.954-31.4,35.433-56.173,35.433c-26.501,0-49.118-16.574-58.089-39.916c-7.77,13.646-22.437,22.855-39.263,22.855
			c-24.943,0-45.164-20.22-45.164-45.164C570.899,520.857,591.119,500.636,616.062,500.636z"/>
		<path style="fill:#A2C3F2;" d="M2796.703,309.566c2.35,0.124,4.641,0.447,6.866,0.936c-0.123-1.735-0.154-3.492-0.059-5.273
			c1.233-23.287,21.11-41.164,44.397-39.931c14.68,0.777,27.205,8.968,34.153,20.747c4.161-20.08,22.466-34.662,43.573-33.544
			c23.287,1.233,41.164,21.11,39.931,44.397c-0.225,4.253-1.078,8.322-2.455,12.131c0.601,0.007,1.204,0.018,1.81,0.05
			c23.286,1.233,41.164,21.111,39.931,44.397s-21.11,41.164-44.397,39.931c-9.092-0.481-17.351-3.814-23.978-9.073
			c-10.384,19.068-31.067,31.527-54.194,30.302c-24.741-1.31-45.037-17.902-52.258-40.137
			c-7.929,12.355-22.077,20.228-37.785,19.396c-23.287-1.233-41.164-21.11-39.931-44.397
			C2753.539,326.21,2773.416,308.332,2796.703,309.566z"/>
	</g>
	<g id="_x37_">
		<path style="fill:#FF593A;" d="M3149.649,505.587l-681.847,203.321l188.372,72.402l-537.607,432.634l-692.193-557.037
			c-34.621-27.86-83.968-27.86-118.589,0l-751.488,604.754c-40.693,32.747-47.134,92.282-14.387,132.976
			c18.686,23.22,46.087,35.284,73.74,35.284c20.809,0,41.763-6.837,59.236-20.898l692.194-557.038l692.194,557.038
			c34.619,27.861,83.967,27.861,118.588,0l596.912-480.359l30.468,199.557L3149.649,505.587z"/>
		<path style="fill:#F1F3F2;" d="M521.447,1351.183c-0.648,0-1.29-0.286-1.721-0.836c-0.745-0.949-0.579-2.322,0.371-3.067
			l842.319-660.963c0.8-0.628,1.927-0.622,2.719,0.017l743.723,598.687l589.676-469.779c0.942-0.751,2.317-0.597,3.07,0.348
			c0.752,0.944,0.597,2.318-0.348,3.07l-591.044,470.869c-0.8,0.638-1.936,0.636-2.731-0.007l-743.733-598.695l-840.954,659.891
			C522.394,1351.031,521.919,1351.183,521.447,1351.183z"/>
		<path style="fill:#F1F3F2;" d="M2535.892,737.265c-0.931,0-1.793-0.599-2.085-1.534c-0.359-1.152,0.282-2.378,1.435-2.737
			l587.893-183.607c1.149-0.362,2.377,0.282,2.737,1.434c0.359,1.152-0.282,2.377-1.435,2.737l-587.893,183.607
			C2536.327,737.232,2536.107,737.265,2535.892,737.265z"/>
	</g>
	<g id="_x36_">
		<path style="fill:#64656E;" d="M705.507,1146.629c0,0,18.644-10.666,49.719,0C755.226,1146.629,735.768,1160.738,705.507,1146.629
			z"/>
		<path style="fill:#F69D85;" d="M578.379,1419.782l-39.46,197.869l-0.896,4.491c-0.167,0.837-0.432,1.722-0.723,2.495
			l-70.716,183.8c-5.11,13.281-20.019,19.905-33.3,14.795c-13.281-5.11-19.908-20.01-14.799-33.291l70.651-183.825l-5.723-194.737
			c-0.539-26.477,20.488-48.377,46.965-48.915c26.477-0.539,48.377,20.488,48.915,46.964
			C579.365,1412.887,579.009,1416.517,578.379,1419.782z"/>
		<path style="fill:#B74F2A;" d="M542.432,1032.816c0,0-32.923-11.839-52.603,15.062c-19.68,26.901-5.109,54.413-6.687,73.296
			c-1.577,18.883-22.467,24.731-24.683,51.105c-2.216,26.374,20.332,34.714,38.764,27.261c0,0-1.847,36.55,29.119,34.066
			c30.966-2.484,82.119-18.172,93.635-68.597C631.492,1114.585,622.915,1038.34,542.432,1032.816z"/>
		<path style="fill:#64656E;" d="M371.767,1348.687c0,0,9.155,19.726,41.997,21.206
			C413.764,1369.893,418.007,1338.869,371.767,1348.687z"/>
		<path style="fill:#263656;" d="M577.686,1219.611c-3.808,0-6.906-3.098-6.906-6.906c0-3.808,3.098-6.906,6.906-6.906
			c3.808,0,6.906,3.098,6.906,6.906C584.593,1216.513,581.495,1219.611,577.686,1219.611z M577.686,1207.164
			c-3.055,0-5.541,2.486-5.541,5.541c0,3.055,2.486,5.541,5.541,5.541c3.055,0,5.541-2.486,5.541-5.541
			C583.227,1209.65,580.742,1207.164,577.686,1207.164z"/>
		<path style="fill:#F69D85;" d="M752.79,1251.292l-6.95-145.08c-0.481-9.941-8.868-17.691-18.844-17.338
			c-10.057,0.356-17.922,8.797-17.567,18.854l4.101,116.026l-115.45-44.86c-0.66-0.254-1.382-0.502-2.072-0.705
			c-13.592-3.985-27.841,3.802-31.826,17.394c-3.985,13.592,3.802,27.84,17.394,31.826l145.937,42.791l0.986,0.294
			c1.958,0.565,4.041,0.823,6.19,0.72C745.189,1270.711,753.293,1261.792,752.79,1251.292z"/>
		<rect x="536.349" y="1120.839" style="fill:#F69D85;" width="41.726" height="65.409"/>
		<path style="fill:#30313C;" d="M578.077,1172.53c0,0,41.9-7.52,125.286,40.257l2.145-66.157c0,0,20.934,8.897,49.719,0
			c0,0,25.121,101.007-2.521,128.374c-23.007,22.778-141.453-9.805-141.453-9.805L578.077,1172.53z"/>
		<path style="fill:#D1836B;" d="M548.783,1159.518c0,0,14.422,5.801,29.292,2.982v-21.29L548.783,1159.518z"/>
		<path style="fill:#F69D85;" d="M567.24,1158.695L567.24,1158.695c23.317-6.596,36.871-30.844,30.275-54.161l-6.199-21.915
			c-6.596-23.316-30.844-36.871-54.161-30.275h0c-23.316,6.596-36.871,30.844-30.275,54.161l6.199,21.915
			C519.675,1151.736,543.924,1165.291,567.24,1158.695z"/>
		<path style="fill:#F69D85;" d="M584.313,1100.682c1.752,6.194,8.193,9.794,14.387,8.042c6.194-1.752,9.794-8.193,8.042-14.387
			c-1.752-6.194-8.194-9.794-14.387-8.042C586.162,1088.047,582.561,1094.488,584.313,1100.682z"/>
		<path style="fill:#F69D85;" d="M549.812,1423.46c38.54,0,87.898-9.264,72.899-62.171c-7.703-27.17-9.395-65.175-1.569-113.832
			c6.12-38.051-48.997-78.689-62.66-78.689h-2.532c-38.54,0-65.085,39.603-61.116,77.938c5.115,49.409,26.468,60.52,2.079,110.036
			C464.41,1422.73,549.812,1423.46,549.812,1423.46z"/>
		<path style="fill:#F69D85;" d="M549.862,1191.928c-8.661-11.291-24.835-13.423-36.126-4.762l-93.604,71.801l-1.296,0.989
			c-2.351,1.817-4.309,4.214-5.634,7.101l-55.079,120.007c-3.409,7.407-0.927,16.384,6.134,20.907
			c7.722,4.947,17.991,2.698,22.938-5.024l71.23-111.183l86.674-63.71C556.391,1219.393,558.523,1203.219,549.862,1191.928z"/>
		<path style="fill:#30313C;" d="M544.82,1103.589c0.889,3.149,0.309,6.07-1.297,6.523c-1.605,0.453-3.628-1.732-4.517-4.881
			c-0.889-3.149-0.309-6.07,1.297-6.523C541.909,1098.254,543.931,1100.439,544.82,1103.589z"/>
		<path style="fill:#30313C;" d="M570.313,1096.39c0.889,3.149,0.309,6.07-1.297,6.523c-1.606,0.453-3.628-1.732-4.517-4.881
			c-0.889-3.149-0.309-6.07,1.297-6.523C567.401,1091.055,569.424,1093.24,570.313,1096.39z"/>
		<path style="fill:#D1836B;" d="M529.789,1119.992c0.272,2.326,2.559,3.97,5.108,3.672c2.549-0.298,4.395-2.425,4.124-4.751
			c-0.272-2.326-2.559-3.97-5.108-3.673C531.362,1115.538,529.516,1117.666,529.789,1119.992z"/>
		<path style="fill:#D1836B;" d="M577.798,1108.414c0.272,2.326,2.559,3.97,5.108,3.672c2.549-0.298,4.396-2.425,4.124-4.751
			c-0.272-2.326-2.559-3.97-5.108-3.672C579.372,1103.961,577.526,1106.088,577.798,1108.414z"/>
		<path style="fill:#30313C;" d="M578.077,1172.53c0,0,45.37,40.522,57.709,82.864c5.682,19.497-11.086,41.728-14.481,62.36
			c-3.146,19.118,1.406,43.535,1.406,43.535s-36.735,7.339-55.879,7.339c-45.754,0-69.919-11.887-69.919-11.887
			s21.835-49.126-6.631-91.631c-22.633-33.795,8.387-80.824,46.041-92.581c0,0,17.566,18.269,31.82,16.41
			C580.102,1187.381,578.077,1172.53,578.077,1172.53z"/>
		<path style="fill:#F69D85;" d="M497.251,1122.949c1.752,6.194,8.193,9.794,14.387,8.042c6.194-1.752,9.794-8.193,8.042-14.387
			c-1.752-6.194-8.193-9.794-14.387-8.042C499.099,1110.313,495.499,1116.755,497.251,1122.949z"/>
		<path style="fill:#B74F2A;" d="M519.644,1054.613c0,0,4.751-35.375,42.269-34.841c37.518,0.535,46.149,33.589,30.003,46.831
			c-11.247,9.223-46.058,9.168-60.93,4.094c0,0,2.095,17.922-18.116,26.34C492.659,1105.455,480.522,1066.377,519.644,1054.613z"/>
		<path style="fill:#30313C;" d="M536.322,1172.53c0,0-36.812,12.511-69.048,35.08c-21.748,15.227-45.669,36.601-57.323,51.262
			c-11.654,14.661-38.184,89.815-38.184,89.815s20.194-3.981,41.997,21.206c0,0,37.485-62.21,43.876-70.856
			c6.391-8.646,48.47-26.017,65.763-47.82C540.695,1229.413,536.322,1172.53,536.322,1172.53z"/>
		<path style="fill:#DB7777;" d="M552.547,1127.547c0.05,1.903,3.315,3.36,7.293,3.256c3.978-0.104,7.162-1.731,7.112-3.634
			c-0.05-1.903-3.315-3.36-7.293-3.256C555.682,1124.018,552.497,1125.645,552.547,1127.547z"/>
		<path style="fill:#AF5945;" d="M556.061,1128.299c-2.318-0.26-4.819-0.859-7.43-1.964c-0.348-0.147-0.51-0.547-0.363-0.894
			c0.147-0.347,0.549-0.51,0.894-0.362c11.21,4.743,20.552-0.501,20.645-0.554c0.326-0.189,0.744-0.076,0.932,0.25
			c0.188,0.326,0.077,0.743-0.249,0.932C570.176,1125.887,564.269,1129.219,556.061,1128.299z"/>
		<path style="fill:#F69D85;" d="M386.679,1370.106c0,0,6.399,17.532,1.245,32.056c-5.155,14.524-10.471,19.066-16.665,21.181
			c-6.194,2.115-12.136-25.157-9.333-35.021C364.729,1378.459,371.95,1368.283,386.679,1370.106z"/>
		<path style="fill:#F69D85;" d="M390.333,1372.528c4.324,10.404,6.593,21.689,6.517,32.959c-0.092,1.44-0.12,3.748-0.329,5.169
			c0.015,2.874-1.156,6.572-4.729,6.104c-3.278-0.314-3.786-3.704-3.662-6.36c-0.658-11.032-4.447-21.887-10.078-31.349
			C371.385,1370.183,386.533,1362.079,390.333,1372.528z"/>
		<path style="fill:#F69D85;" d="M387.99,1402.371c-2.766,11.384-3.397,23.404-1.567,34.994c0.745,4.325-5.867,5.879-7.142,1.714
			c-1.608-4.611-2.84-9.44-3.678-14.259c-1.378-8.498-2.034-17.19-1.205-25.79C375.808,1388.695,391.534,1392.546,387.99,1402.371z"
			/>
		<path style="fill:#F69D85;" d="M379.457,1405.303c-2.267,7.763-3.415,15.897-3.677,23.984c-0.03,0.553-0.043,1.688-0.032,2.242
			c-0.827,4.189,3.13,11.904-2.837,13.141c-5.433,1.097-5.949-13.409-6.86-17.237c-0.964-8.587-1.215-17.324-0.056-25.916
			C367.787,1391.323,383.244,1395.655,379.457,1405.303z"/>
		<path style="fill:#F69D85;" d="M374.799,1403.982c-5.507,10.734-8.815,22.889-8.475,35.003c0.131,4.395-6.653,4.983-7.301,0.667
			c-0.465-2.358-0.899-5.327-1.115-7.72c-0.805-11.62,0.688-23.474,4.513-34.485C366.294,1387.773,380.609,1395.31,374.799,1403.982
			z"/>
		<path style="fill:#F69D85;" d="M371.307,1392.798c-8.653,11.404-14.257,25.651-14.002,40.084c0.029,4.446-6.872,4.804-7.318,0.404
			c-0.432-2.859-0.75-6.451-0.802-9.342c0.046-13.354,3.845-26.635,10.254-38.318
			C364.139,1375.065,378.877,1384.045,371.307,1392.798z"/>
		<path style="fill:#AF5945;" d="M357.534,1425.386c-0.358,0-0.658-0.278-0.681-0.64c-0.006-0.095-0.566-9.619,1.986-18.648
			c0.103-0.363,0.479-0.576,0.842-0.471c0.363,0.102,0.574,0.48,0.471,0.842c-2.487,8.799-1.943,18.099-1.937,18.192
			c0.023,0.376-0.263,0.701-0.639,0.724C357.563,1425.385,357.548,1425.386,357.534,1425.386z"/>
		<path style="fill:#AF5945;" d="M367.154,1431.588c-0.34,0-0.634-0.254-0.677-0.599c-0.011-0.09-1.09-9.1-0.002-20.199
			c0.036-0.375,0.364-0.647,0.746-0.613c0.375,0.037,0.649,0.37,0.613,0.746c-1.073,10.951-0.013,19.811-0.002,19.899
			c0.046,0.374-0.22,0.715-0.594,0.761C367.21,1431.587,367.182,1431.588,367.154,1431.588z"/>
		<path style="fill:#AF5945;" d="M376.423,1426.325c-0.332,0-0.623-0.242-0.674-0.581c-0.059-0.387-1.429-9.557-0.858-16.51
			c0.031-0.375,0.358-0.654,0.736-0.625c0.376,0.031,0.655,0.361,0.625,0.737c-0.557,6.793,0.833,16.101,0.847,16.194
			c0.056,0.372-0.2,0.721-0.573,0.777C376.492,1426.323,376.457,1426.325,376.423,1426.325z"/>
		<path style="fill:#F69D85;" d="M712.563,1126.192c0,0-3.018-18.417,4.754-31.726c7.772-13.308,13.842-16.78,20.322-17.703
			c6.479-0.923,7.233,26.979,2.64,36.147C735.685,1122.079,726.693,1130.73,712.563,1126.192z"/>
		<path style="fill:#F69D85;" d="M717.291,1094.249c4.84-10.669,7.701-22.36,8.064-34.089c0.074-4.388,6.86-4.682,7.336-0.352
			c0.72,4.83,1.031,9.804,0.956,14.694c-0.231,8.605-1.207,17.268-3.624,25.563C726.709,1109.956,711.977,1103.241,717.291,1094.249
			z"/>
		<path style="fill:#F69D85;" d="M726.221,1092.959c3.674-7.204,6.319-14.982,8.085-22.878c0.132-0.537,0.357-1.65,0.45-2.197
			c1.593-3.962-0.856-12.279,5.238-12.381c5.542-0.065,3.344,14.283,3.526,18.214c-0.654,8.617-2.036,17.246-4.777,25.472
			C735.08,1108.87,720.701,1101.733,726.221,1092.959z"/>
		<path style="fill:#F69D85;" d="M730.551,1095.125c7.412-9.519,12.928-20.844,14.853-32.809c0.691-4.342,7.465-3.655,7.298,0.706
			c0.017,2.404-0.11,5.401-0.344,7.793c-1.376,11.566-5.052,22.934-10.864,33.038
			C735.884,1112.636,723.226,1102.563,730.551,1095.125z"/>
		<path style="fill:#F69D85;" d="M731.896,1106.765c10.628-9.59,18.789-22.543,21.229-36.771c0.801-4.374,7.647-3.439,7.265,0.967
			c-0.109,2.89-0.466,6.478-0.954,9.328c-2.535,13.111-8.743,25.451-17.218,35.735
			C735.633,1125.523,722.827,1113.953,731.896,1106.765z"/>
		<path style="fill:#AF5945;" d="M751.504,1077.316c0.351,0.067,0.594,0.396,0.549,0.756c-0.012,0.095-1.238,9.556-5.428,17.951
			c-0.169,0.338-0.578,0.476-0.915,0.306c-0.338-0.168-0.474-0.578-0.306-0.915c4.083-8.181,5.283-17.42,5.295-17.512
			c0.047-0.374,0.388-0.639,0.763-0.592C751.476,1077.311,751.49,1077.313,751.504,1077.316z"/>
		<path style="fill:#AF5945;" d="M743.209,1069.429c0.334,0.063,0.576,0.367,0.553,0.715c-0.006,0.091-0.626,9.144-3.764,19.845
			c-0.106,0.362-0.478,0.568-0.847,0.463c-0.362-0.106-0.569-0.485-0.463-0.847c3.096-10.559,3.706-19.461,3.712-19.55
			c0.025-0.376,0.35-0.661,0.726-0.637C743.153,1069.42,743.181,1069.424,743.209,1069.429z"/>
		<path style="fill:#AF5945;" d="M733.121,1072.871c0.326,0.062,0.567,0.354,0.554,0.696c-0.015,0.391-0.378,9.656-2.235,16.381
			c-0.1,0.363-0.473,0.576-0.839,0.476c-0.363-0.101-0.576-0.477-0.476-0.84c1.814-6.57,2.183-15.974,2.187-16.068
			c0.014-0.376,0.331-0.671,0.708-0.656C733.053,1072.861,733.087,1072.865,733.121,1072.871z"/>
		<path style="fill:#AF5945;" d="M510.218,1125.886c-0.285-0.031-0.53-0.242-0.592-0.538c-0.706-3.36-2.803-3.501-4.831-3.637
			c-1.21-0.081-2.355-0.158-3.057-0.967c-0.436-0.503-0.614-1.195-0.544-2.115c0.391-5.16,6.005-6.657,6.244-6.719
			c0.365-0.094,0.736,0.126,0.83,0.491c0.094,0.364-0.125,0.737-0.49,0.831c-0.2,0.052-4.906,1.323-5.222,5.499
			c-0.041,0.532,0.032,0.908,0.214,1.118c0.329,0.38,1.198,0.438,2.116,0.5c2.056,0.137,5.156,0.345,6.076,4.718
			c0.077,0.369-0.159,0.731-0.528,0.808C510.362,1125.892,510.288,1125.894,510.218,1125.886z"/>
		<path style="fill:#AF5945;" d="M597.346,1104.212c-0.291-0.032-0.539-0.251-0.595-0.554c-0.814-4.394,1.976-5.767,3.822-6.676
			c0.827-0.407,1.608-0.791,1.767-1.267c0.089-0.264,0.012-0.64-0.227-1.116c-1.89-3.757-6.872-3.105-6.922-3.097
			c-0.375,0.049-0.719-0.208-0.771-0.581c-0.052-0.373,0.208-0.719,0.581-0.771c0.244-0.035,6.005-0.787,8.331,3.836
			c0.415,0.825,0.514,1.532,0.302,2.163c-0.341,1.016-1.37,1.522-2.459,2.058c-1.823,0.897-3.709,1.825-3.083,5.202
			c0.069,0.371-0.176,0.727-0.547,0.796C597.479,1104.217,597.411,1104.219,597.346,1104.212z"/>
		<path style="fill:#FFB12A;" d="M506.906,1140.03c-3.327-0.373-5.729-3.383-5.356-6.709c0.373-3.327,3.383-5.73,6.709-5.357
			c3.327,0.373,5.73,3.383,5.356,6.71C513.242,1138,510.232,1140.403,506.906,1140.03z M508.107,1129.32
			c-2.578-0.289-4.911,1.573-5.201,4.152c-0.289,2.578,1.573,4.911,4.152,5.2c2.579,0.289,4.912-1.573,5.201-4.152
			C512.548,1131.943,510.686,1129.61,508.107,1129.32z"/>
		<path style="fill:#FFB12A;" d="M604.503,1114.153c-3.326-0.373-5.729-3.383-5.356-6.71c0.373-3.327,3.383-5.729,6.71-5.356
			c3.327,0.373,5.73,3.383,5.357,6.71C610.84,1112.123,607.83,1114.526,604.503,1114.153z M605.704,1103.444
			c-2.578-0.289-4.911,1.573-5.201,4.152c-0.289,2.579,1.573,4.912,4.152,5.201c2.579,0.289,4.912-1.573,5.201-4.152
			C610.146,1106.066,608.283,1103.733,605.704,1103.444z"/>
		<path style="fill:#AF5945;" d="M533.216,1100.136c-0.192-0.022-0.38-0.092-0.547-0.213c-0.511-0.373-0.623-1.09-0.25-1.6
			c0.184-0.252,4.584-6.162,12.047-6.475c0.631-0.028,1.166,0.464,1.193,1.096c0.026,0.632-0.464,1.166-1.096,1.193
			c-6.373,0.268-10.255,5.485-10.294,5.537C534.018,1100.017,533.611,1100.18,533.216,1100.136z"/>
		<path style="fill:#AF5945;" d="M558.646,1090.331c-0.319-0.036-0.622-0.205-0.818-0.49c-0.356-0.52-0.227-1.23,0.292-1.588
			c0.215-0.148,5.344-3.609,12.092-0.948c0.589,0.232,0.877,0.897,0.646,1.486c-0.232,0.588-0.896,0.878-1.486,0.645
			c-5.575-2.199-9.777,0.584-9.954,0.704C559.184,1090.3,558.909,1090.36,558.646,1090.331z"/>
		<path style="fill:#AF5945;" d="M558.048,1118.352c-0.227-0.025-0.435-0.164-0.541-0.385c-0.162-0.34-0.017-0.748,0.323-0.91
			c1.495-0.712,4.445-2.605,4.029-3.917c-0.581-1.828-5.242-9.587-6.989-12.422c-0.198-0.321-0.098-0.742,0.223-0.939
			c0.321-0.198,0.742-0.098,0.939,0.223c0.26,0.422,6.378,10.364,7.128,12.725c0.888,2.795-4.165,5.288-4.744,5.563
			C558.297,1118.347,558.17,1118.366,558.048,1118.352z"/>
		<path style="fill:#64656E;" d="M495.642,1275.004c-0.22,0-0.436-0.106-0.567-0.302c-0.21-0.313-0.127-0.737,0.186-0.947
			c0.183-0.122,18.288-12.31,23.31-18.124c0.246-0.286,0.677-0.317,0.963-0.07c0.285,0.246,0.317,0.677,0.07,0.963
			c-5.142,5.952-22.831,17.861-23.582,18.364C495.905,1274.966,495.773,1275.004,495.642,1275.004z"/>
		<path style="fill:#64656E;" d="M597.366,1251.324c-3.387,0-6.142-2.755-6.142-6.142c0-3.387,2.755-6.142,6.142-6.142
			c3.386,0,6.142,2.755,6.142,6.142C603.508,1248.568,600.752,1251.324,597.366,1251.324z M597.366,1240.405
			c-2.634,0-4.777,2.143-4.777,4.777c0,2.634,2.143,4.777,4.777,4.777c2.634,0,4.777-2.143,4.777-4.777
			C602.142,1242.548,600,1240.405,597.366,1240.405z"/>
		<path style="fill:#64656E;" d="M599.247,1282.18c-3.387,0-6.142-2.755-6.142-6.142c0-3.387,2.755-6.142,6.142-6.142
			c3.387,0,6.142,2.755,6.142,6.142C605.389,1279.425,602.633,1282.18,599.247,1282.18z M599.247,1271.262
			c-2.634,0-4.777,2.143-4.777,4.777s2.143,4.777,4.777,4.777c2.634,0,4.776-2.143,4.776-4.777S601.88,1271.262,599.247,1271.262z"
			/>
		<path style="fill:#64656E;" d="M597.366,1343.894c-3.387,0-6.142-2.755-6.142-6.142s2.755-6.142,6.142-6.142
			c3.386,0,6.142,2.755,6.142,6.142S600.752,1343.894,597.366,1343.894z M597.366,1332.975c-2.634,0-4.777,2.143-4.777,4.777
			s2.143,4.777,4.777,4.777c2.634,0,4.777-2.143,4.777-4.777S600,1332.975,597.366,1332.975z"/>
		<path style="fill:#64656E;" d="M597.366,1313.037c-3.387,0-6.142-2.755-6.142-6.142c0-3.386,2.755-6.141,6.142-6.141
			c3.386,0,6.142,2.755,6.142,6.141C603.508,1310.282,600.752,1313.037,597.366,1313.037z M597.366,1302.119
			c-2.634,0-4.777,2.142-4.777,4.776c0,2.634,2.143,4.777,4.777,4.777c2.634,0,4.777-2.143,4.777-4.777
			C602.142,1304.261,600,1302.119,597.366,1302.119z"/>
		<path style="fill:#F69D85;" d="M638.086,1414.356l9.266,201.552l0.21,4.575c0.039,0.852-0.005,1.776-0.102,2.596l-24.456,195.41
			c-1.767,14.12-14.646,24.134-28.766,22.367c-14.12-1.767-24.135-14.637-22.368-28.757l24.388-195.418l-52.37-187.651
			c-6.888-25.57,8.257-51.883,33.828-58.771c25.571-6.888,51.883,8.258,58.771,33.828
			C637.386,1407.427,637.912,1411.036,638.086,1414.356z"/>
		<path style="fill:#FFB12A;" d="M623.225,1360.827c0,0,40.42,82.285,56.018,222.397c6.977,62.672-21.493,202.726-21.493,202.726
			s-58.461,16.057-108.796-3.371l22.032-161.92c0,0-8.912-90.786-25.829-135.896c-16.916-45.11-13.069-118.632-13.069-118.632
			C575.142,1369.431,623.225,1360.827,623.225,1360.827z"/>
		<path style="fill:#404D7F;" d="M670.437,1880.494l-62.137-0.319l-13.231-27.817l-5.433,27.714l-17.946-0.089
			c-16.605-34.202,0.646-77.165,0.646-77.165s26.012,5.109,57.195,0.555l-0.531,27.847l46.579,33.425
			C682.502,1869.613,678.956,1880.537,670.437,1880.494z"/>
		<path style="fill:#606A97;" d="M580.384,1842.191c-0.677,0-1.354-0.131-2-0.395c-1.308-0.534-2.329-1.545-2.877-2.848
			c-0.547-1.302-0.554-2.74-0.021-4.048c0.534-1.308,1.546-2.33,2.848-2.876c1.302-0.547,2.74-0.555,4.047-0.021
			c1.308,0.534,2.33,1.545,2.877,2.848l0,0c1.129,2.688-0.139,5.795-2.827,6.924
			C581.773,1842.052,581.079,1842.191,580.384,1842.191z M580.384,1832.974c-0.515,0-1.03,0.103-1.519,0.308
			c-0.966,0.406-1.717,1.164-2.113,2.134c-0.396,0.97-0.391,2.037,0.015,3.003c0.406,0.965,1.164,1.716,2.134,2.113
			c0.97,0.396,2.037,0.391,3.003-0.015c1.994-0.838,2.936-3.143,2.098-5.137c-0.406-0.966-1.164-1.716-2.134-2.113
			C581.388,1833.072,580.886,1832.974,580.384,1832.974z"/>
		<path style="fill:#FFB12A;" d="M591.205,1364.968c0,0,5.07,88.871-13.473,228.624c-8.294,62.511-69.599,191.613-69.599,191.613
			s-60.607,1.532-104.796-29.427l60.312-151.875c0,0-4.468-89.469-4.468-139.343c0-74.889,37.73-107.819,37.73-107.819
			C537.911,1370.294,591.205,1364.968,591.205,1364.968z"/>
		<path style="fill:#404D7F;" d="M497.72,1880.026l-60.238-15.247l-6.155-30.182l-11.936,25.595l-17.398-4.401
			c-7.896-37.191,19.178-74.746,19.178-74.746s24.021,11.212,55.384,14.289l-7.21,26.903l37.177,43.642
			C512.047,1872.365,505.98,1882.117,497.72,1880.026z"/>
		<path style="fill:#606A97;" d="M419.517,1821.198c-0.657-0.163-1.283-0.453-1.846-0.864c-1.141-0.833-1.89-2.06-2.108-3.456
			c-0.218-1.396,0.121-2.793,0.953-3.934c0.833-1.142,2.061-1.89,3.456-2.107c1.395-0.218,2.793,0.12,3.934,0.953
			c1.141,0.833,1.89,2.06,2.108,3.456l0,0c0.45,2.881-1.528,5.591-4.409,6.042C420.898,1821.397,420.191,1821.365,419.517,1821.198z
			 M421.732,1812.251c-0.5-0.124-1.025-0.148-1.549-0.066c-1.036,0.161-1.946,0.717-2.564,1.563
			c-0.618,0.846-0.869,1.883-0.707,2.919c0.162,1.035,0.717,1.946,1.564,2.564c0.846,0.617,1.883,0.869,2.918,0.707
			c2.137-0.334,3.605-2.345,3.271-4.482c-0.162-1.035-0.717-1.946-1.564-2.564C422.684,1812.587,422.22,1812.372,421.732,1812.251z"
			/>
		<path style="fill:#606A97;" d="M638.583,1081.39c-3.843,0.618-6.323,5.073-5.539,9.95c0.784,4.877,4.535,8.33,8.378,7.713
			l327.805-25.01l-11.514-71.631L638.583,1081.39z"/>
		<path style="fill:#606A97;" d="M819.603,1031.531c-16.267,2.615-24.587,13.481-21.408,33.262
			c3.18,19.78,14.486,27.492,30.753,24.877l140.278-15.628l-11.514-71.631L819.603,1031.531z"/>
		
			<ellipse transform="matrix(0.9873 -0.1587 0.1587 0.9873 -152.5606 166.0657)" style="fill:#99A7D8;" cx="963.47" cy="1038.226" rx="29.831" ry="36.275"/>
		<path style="fill:#7CE1F7;" d="M967.442,1062.928c-3.876,0.625-7.707-0.112-11.153-1.907c-1.712-0.887-3.335-2.041-4.812-3.418
			c-1.361-1.26-2.61-2.71-3.703-4.327c-2.141-3.145-3.72-6.898-4.489-11.047c-0.045-0.245-0.089-0.491-0.128-0.736
			c-2.192-13.64,5.125-26.165,16.345-27.966c5.035-0.814,10.004,0.675,14.147,3.803c2.917,2.192,5.42,5.197,7.255,8.777
			c0.892,1.734,1.623,3.608,2.169,5.588c0.29,1.06,0.53,2.147,0.708,3.268c0.173,1.087,0.29,2.169,0.346,3.234
			C984.785,1050.531,977.764,1061.271,967.442,1062.928z"/>
		<path style="fill:#F69D85;" d="M709.425,1123.132c-2.308-11.028-2.434-22.538-0.258-33.596c0.359-1.397,0.817-3.66,1.287-5.017
			c0.521-2.826,2.361-6.241,5.784-5.116c3.162,0.919,3.029,4.345,2.412,6.931c-1.41,10.961,0.288,22.333,4.057,32.678
			C727.603,1128.969,711.21,1134.106,709.425,1123.132z"/>
		<path style="fill:#F1F3F2;" d="M593.232,1172.443l4.146,32.286l-22.935-10.274l-15.427,18.332l-33.845-36.01l11.178-8.009
			c0,0,18.836,23.906,35.017,17.462c8.116-3.232,6.711-18.901,6.711-18.901L593.232,1172.443z"/>
		<path style="fill:#64656E;" d="M733.062,1162.793c-15.631,0-27.992-3.761-28.177-3.818c-0.441-0.138-0.688-0.606-0.55-1.047
			c0.136-0.44,0.605-0.688,1.047-0.551c0.274,0.085,27.598,8.387,52.136,0.007c0.441-0.15,0.912,0.084,1.062,0.522
			c0.149,0.437-0.084,0.912-0.521,1.062C749.656,1161.837,740.943,1162.793,733.062,1162.793z"/>
		<path style="fill:#64656E;" d="M732.19,1174.477c-16.391,0-27.574-4.871-27.741-4.946c-0.422-0.188-0.611-0.683-0.422-1.104
			c0.188-0.422,0.684-0.612,1.104-0.423c0.245,0.109,24.791,10.771,54.413-0.022c0.435-0.16,0.914,0.065,1.073,0.499
			c0.158,0.434-0.066,0.914-0.5,1.072C749.987,1173.245,740.428,1174.477,732.19,1174.477z"/>
		<path style="fill:#997243;" d="M569.862,1629.751c-0.084,0-0.171-0.013-0.256-0.041c-0.439-0.141-0.682-0.613-0.54-1.052
			c0.055-0.172,5.582-17.485,7.837-35.172c2.262-17.75,12.631-149.62,12.736-150.949c0.036-0.462,0.445-0.805,0.899-0.768
			c0.461,0.036,0.805,0.439,0.768,0.899c-0.104,1.33-10.476,133.241-12.743,151.031c-2.275,17.845-7.848,35.298-7.904,35.473
			C570.544,1629.525,570.216,1629.751,569.862,1629.751z"/>
		<path style="fill:#997243;" d="M565.641,1379.018c-12.422,0-23.825-0.85-33.39-1.953c-26.385-3.041-44.85-8.605-45.033-8.661
			c-0.442-0.135-0.691-0.602-0.557-1.044c0.134-0.441,0.602-0.692,1.044-0.557c0.182,0.056,18.531,5.582,44.774,8.603
			c24.196,2.786,60.244,3.951,94.575-6.316c0.442-0.133,0.909,0.119,1.041,0.562c0.132,0.443-0.119,0.909-0.562,1.041
			C606.508,1376.982,584.857,1379.018,565.641,1379.018z"/>
		<path style="fill:#997243;" d="M522.363,1754.742c-0.012,0-0.025,0-0.037-0.001c-61.004-2.635-105.584-31.773-106.027-32.067
			c-0.384-0.255-0.49-0.774-0.234-1.159c0.256-0.386,0.776-0.49,1.159-0.235c0.44,0.292,44.654,29.175,105.175,31.79
			c0.461,0.02,0.819,0.41,0.799,0.872C523.179,1754.391,522.808,1754.742,522.363,1754.742z"/>
		<path style="fill:#997243;" d="M614.273,1759.716c-18.627,0-40.32-2.148-61.111-9.267c-0.437-0.149-0.67-0.625-0.52-1.062
			c0.15-0.437,0.624-0.671,1.062-0.52c51.751,17.718,109.256,4.362,109.83,4.225c0.451-0.106,0.901,0.171,1.008,0.62
			c0.107,0.449-0.171,0.901-0.62,1.008C663.573,1754.802,642.432,1759.716,614.273,1759.716z"/>
		<path style="fill:#997243;" d="M523.63,1733.358c-27.735,0-52.224-7.181-68.453-13.53c-19.284-7.545-31.408-15.586-31.528-15.667
			c-0.384-0.257-0.487-0.776-0.231-1.16c0.257-0.385,0.778-0.487,1.16-0.231c0.476,0.317,48.255,31.756,107.091,28.709
			c0.473-0.021,0.855,0.332,0.879,0.792c0.023,0.462-0.331,0.855-0.792,0.879C529.02,1733.291,526.308,1733.358,523.63,1733.358z"/>
		<path style="fill:#997243;" d="M612.169,1739.571c-16.588,0-35.912-1.557-56.589-6.231c-0.451-0.102-0.734-0.55-0.631-1
			c0.101-0.45,0.553-0.736,1-0.631c61.304,13.856,110.674,0.152,111.165,0.011c0.441-0.125,0.906,0.131,1.034,0.576
			c0.126,0.444-0.131,0.907-0.575,1.034C667.243,1733.423,645.113,1739.571,612.169,1739.571z"/>
		<path style="fill:#394572;" d="M809.483,1087.066c-0.205,0-0.411-0.075-0.572-0.226c-21.176-19.875-7.592-46.073-7.452-46.335
			c0.217-0.407,0.723-0.563,1.131-0.345c0.408,0.217,0.563,0.723,0.346,1.131c-0.134,0.251-13.109,25.342,7.12,44.329
			c0.337,0.316,0.354,0.846,0.038,1.182C809.929,1086.978,809.706,1087.066,809.483,1087.066z"/>
		<path style="fill:#64656E;" d="M420.757,1359.166c-0.248,0-0.492-0.109-0.657-0.318c-17.378-22.029-43.445-22.077-43.714-22.068
			c-0.434,0.007-0.84-0.367-0.844-0.829c-0.004-0.462,0.366-0.84,0.828-0.844c0.26-0.002,27.135,0.003,45.043,22.704
			c0.286,0.363,0.224,0.889-0.139,1.175C421.121,1359.107,420.938,1359.166,420.757,1359.166z"/>
		<path style="fill:#64656E;" d="M427.78,1347.603c-0.243,0-0.484-0.105-0.649-0.309c-19.442-23.899-45.589-23.642-45.842-23.631
			c-0.446-0.005-0.844-0.357-0.854-0.818c-0.01-0.462,0.356-0.844,0.818-0.854c0.267-0.002,27.201-0.306,47.176,24.248
			c0.292,0.358,0.237,0.885-0.121,1.177C428.152,1347.542,427.965,1347.603,427.78,1347.603z"/>
		<path style="fill:#64656E;" d="M636.072,1273.116c-0.087,0-0.176-0.013-0.262-0.042c-0.439-0.145-0.677-0.618-0.532-1.057
			c7.077-21.407-17.727-52.251-17.979-52.56c-0.292-0.358-0.237-0.885,0.121-1.177c0.359-0.292,0.886-0.237,1.177,0.121
			c1.05,1.291,25.634,31.864,18.27,54.141C636.75,1272.893,636.423,1273.116,636.072,1273.116z"/>
		<path style="fill:#64656E;" d="M720.522,1224.542c-0.203,0-0.406-0.073-0.567-0.222c-6.096-5.619-16.843-10.726-16.951-10.777
			c-0.418-0.197-0.596-0.696-0.399-1.113c0.198-0.418,0.694-0.597,1.114-0.399c0.449,0.212,11.084,5.265,17.37,11.06
			c0.339,0.313,0.361,0.842,0.048,1.182C720.973,1224.451,720.748,1224.542,720.522,1224.542z"/>
		<path style="fill:#B3F4FF;" d="M980.904,1026.106l-33.13,27.168c-2.141-3.145-3.72-6.898-4.489-11.047l30.364-24.899
			C976.565,1019.521,979.069,1022.526,980.904,1026.106z"/>
		<path style="fill:#B3F4FF;" d="M984.127,1038.196l-27.838,22.824c-1.712-0.887-3.335-2.041-4.812-3.418l31.596-25.908
			c0.29,1.06,0.53,2.147,0.708,3.268C983.954,1036.049,984.071,1037.131,984.127,1038.196z"/>
	</g>
	<g id="_x35_">
		<path style="fill:#F69D85;" d="M1063.131,873.448c-2.278-0.327-5.077-1.681-7.286-2.651c-13.102-5.758-19.734-18.299-13.976-31.4
			l97.635-222.145c4.277-9.732,14.064-15.864,24.687-15.468l174.313,6.495c14.306,0.532,25.462,12.557,24.929,26.858
			c-0.532,14.301-12.557,25.462-26.859,24.929l-156.713-5.839l-90.548,206.021C1084.527,871.141,1074.359,875.06,1063.131,873.448z"
			/>
		<path style="fill:#30313C;" d="M1407.805,557.953c0,0-10.453,101.562-61.358,120.957c-50.905,19.395-152.686-8.572-152.686-8.572
			l-72.135,160.707c0,0-50.48-6.99-75.007-27.884c8.393-33.016,43.37-172.025,86.809-205.307
			c32.561-24.947,99.431-24.516,156.284-31.714C1327.677,561.334,1407.805,557.953,1407.805,557.953z"/>
		<path style="fill:#404660;" d="M997.079,843.221l16.797,9.514c0.91-0.708,1.696-1.556,2.34-2.526c0,0,0-0.001,0.001-0.001
			c0.61-0.913,1.079-1.932,1.393-3.027l3.613-12.597C1017.739,833.632,1002.018,830.153,997.079,843.221z"/>
		<path style="fill:#404D7F;" d="M1088.257,875.142c-0.784,1.181-1.764,2.184-2.878,2.979c-2.766,1.977-6.36,2.664-9.777,1.509
			l-78.111-26.52c-3.89-1.316-6.078-4.564-6.537-8.064c-0.147-1.065-0.127-2.158,0.058-3.229c0.549-3.214,2.56-6.217,6.068-7.735
			l14.126-6.107l15.182-6.564c34.258,17.794,72.129,19.892,72.129,19.892l-4.968,17.337l-3.807,13.275
			C1089.404,873.096,1088.901,874.177,1088.257,875.142z"/>
		<path style="fill:#404D7F;" d="M1017.904,825.079c0,0,21.454-9.404,27.538-11.325c6.083-1.921,16.736,6.722,13.703,11.238
			c-3.033,4.517-14.133,9.517-14.133,9.517L1017.904,825.079z"/>
		<path style="fill:#606A97;" d="M997.221,853.767c-5.825-2-7.665-7.653-6.908-12.07c0.035-0.205,0.159-0.384,0.337-0.49
			c0.179-0.106,0.395-0.128,0.592-0.061l97.244,33.324l0,0c0.207,0.071,0.37,0.234,0.441,0.443c0.071,0.208,0.041,0.437-0.08,0.62
			c-2.967,4.484-8.507,6.445-13.473,4.769l-78.112-26.52C997.249,853.777,997.235,853.772,997.221,853.767z"/>
		<path style="fill:#606A97;" d="M1011.22,827.849c0,0-19.496,3.842-20.893,13.722l30.089,9.981
			C1020.416,851.552,1023.383,837.154,1011.22,827.849z"/>
		<path style="fill:#606A97;" d="M1093.549,858.641c0,0-17.159-6.267-26.374,8.527l21.673,8.366
			C1088.848,875.533,1092.242,868.048,1093.549,858.641z"/>
		<path style="fill:#F69D85;" d="M1257.448,959.277c-2.238,0.535-5.525,0.333-7.937,0.244c-14.301-0.528-24.942-9.777-24.415-24.078
			l8.943-242.49c0.392-10.623,7.232-19.929,17.253-23.474l164.449-58.17c13.495-4.771,28.298,2.296,33.07,15.787
			c4.773,13.492-2.296,28.298-15.788,33.07l-147.845,52.297l-8.293,224.889C1276.447,949.242,1268.48,956.639,1257.448,959.277z"/>
		<path style="fill:#30313C;" d="M1485.891,553.469c0,0,29.879,72.469-11.577,117.745c-36.787,40.177-175.461,51.749-175.461,51.749
			l-3.368,175.869c0,0-48.822,11.563-79.321,1.172c-4.359-33.786-25.749-179.899,0.407-227.966
			c14.553-26.743,84.142-88.148,128.859-107.19L1485.891,553.469z"/>
		<path style="fill:#404D7F;" d="M1281.388,951.587c-0.294,1.386-0.835,2.68-1.578,3.829c-1.843,2.857-4.932,4.819-8.534,5.005
			l-82.388,4.117c-4.101,0.209-7.332-2.004-9.048-5.089c-0.529-0.936-0.913-1.96-1.135-3.023c-0.674-3.19,0.09-6.723,2.792-9.426
			l10.883-10.881l11.697-11.695c38.404,3.924,74.385-8.076,74.385-8.076l1.767,17.948l1.35,13.745
			C1281.701,949.263,1281.632,950.453,1281.388,951.587z"/>
		<path style="fill:#404D7F;" d="M1197.542,930.959c0,0,16.482-16.645,21.43-20.672c4.948-4.027,18.035,0.085,16.879,5.401
			c-1.156,5.316-9.634,14.053-9.634,14.053L1197.542,930.959z"/>
		<path style="fill:#606A97;" d="M1281.93,951.125c-0.112-0.129-0.26-0.205-0.422-0.23c-0.052-0.015-0.102-0.02-0.152-0.015
			l-9.819,0.459l-12.149,0.573l-0.03,0.003l-21.211,1l-5.795,0.275l-22.804,1.072l-28.848,1.36l-2.031,0.095l-0.079,0.008
			c-0.178,0.027-0.338,0.122-0.444,0.272c-0.125,0.162-0.175,0.367-0.135,0.573c0.623,2.951,2.545,5.998,5.626,7.574
			c1.485,0.778,3.236,1.201,5.248,1.108l0.04-0.004l48.005-2.394l34.385-1.72c5.235-0.281,9.657-4.135,10.764-9.402
			c0,0,0.001-0.09-0.006-0.27C1282.06,951.333,1282.009,951.218,1281.93,951.125z"/>
		<path style="fill:#606A97;" d="M1192.381,936.119c0,0-16.71,10.753-14.369,20.453l31.649-1.804
			C1209.662,954.768,1207.117,940.289,1192.381,936.119z"/>
		<path style="fill:#606A97;" d="M1280.231,934.297c0,0-18.036,2.027-20.869,17.618l22.721-0.182
			C1282.083,951.733,1282.11,945.366,1280.231,934.297z"/>
		<path style="fill:#60BF60;" d="M1315.832,324.076c0,0,28.751,150.372,8.786,193.096c-16.794,35.936-163.729,65.181-163.729,65.181
			s4.752-19.626-5.285-47.803c0,0,36.734-29.733,80.414-53.657C1236.017,480.893,1245.548,340.486,1315.832,324.076z"/>
		
			<rect x="1325.598" y="267.664" transform="matrix(0.9939 -0.1099 0.1099 0.9939 -24.8931 149.8177)" style="fill:#F69D85;" width="42.198" height="66.148"/>
		<path style="fill:#D1836B;" d="M1359.846,299.281c-16.667,10.898-33.333,10.891-33.333,10.891l-1.408-12.735L1359.846,299.281z"/>
		<path style="fill:#F69D85;" d="M1377.045,563.59l-2.545,0.281c-38.739,4.283-73.616-23.649-77.899-62.388l-0.233-61.594
			c-4.283-38.739,12.008-119.424,50.747-123.707l2.545-0.281c38.739-4.283,73.616,23.649,77.899,62.388l11.875,107.402
			C1443.716,524.431,1415.784,559.307,1377.045,563.59z"/>
		<path style="fill:#60BF60;" d="M1315.832,324.076c0,0,33.295,24.837,63.95-9.492c0,0,41.292,7.148,66.775,61.36
			c46.522,98.97,45.964,177.215,45.964,177.215s-27.898,14.972-96.874,8.374c-55.661-5.324-105.936,4.607-105.936,4.607
			s-8.048-58.542-9.33-121.748C1279.204,386.373,1295.606,354.065,1315.832,324.076z"/>
		<path style="fill:#F1F3F2;" d="M1368.699,307.756c0,0-18.477,15.599-29.173,16.781c-9.651,1.067-12.346-8.334-12.346-8.334
			l-11.347,7.873l11.901,24.912l11.11-16.542l10.567,15.671l30.372-33.532L1368.699,307.756z"/>
		<path style="fill:#F69D85;" d="M1395.83,240.768c1.006,6.431-3.393,12.46-9.824,13.466c-6.431,1.006-12.46-3.393-13.466-9.824
			c-1.005-6.432,3.393-12.46,9.824-13.466C1388.796,229.938,1394.824,234.336,1395.83,240.768z"/>
		<path style="fill:#AF5945;" d="M1385.729,250.081c-0.037,0.017-0.077,0.031-0.118,0.042c-0.37,0.094-0.745-0.129-0.839-0.499
			c-1.115-4.379,1.609-5.951,3.412-6.991c0.807-0.465,1.569-0.905,1.699-1.397c0.071-0.273-0.031-0.646-0.304-1.111
			c-2.149-3.65-6.987-2.706-7.193-2.664c-0.373,0.076-0.738-0.164-0.815-0.537c-0.077-0.373,0.163-0.738,0.534-0.815
			c0.244-0.051,6.008-1.195,8.663,3.315c0.474,0.805,0.621,1.512,0.449,2.163c-0.276,1.048-1.281,1.627-2.344,2.24
			c-1.78,1.027-3.621,2.089-2.764,5.455C1386.194,249.612,1386.027,249.945,1385.729,250.081z"/>
		<path style="fill:#F69D85;" d="M1300.049,257.259c1.006,6.431-3.393,12.46-9.824,13.466c-6.431,1.006-12.461-3.393-13.466-9.824
			c-1.006-6.431,3.393-12.46,9.824-13.466C1293.015,246.429,1299.044,250.827,1300.049,257.259z"/>
		<path style="fill:#AF5945;" d="M1288.492,266.825c-0.072,0.033-0.151,0.054-0.234,0.06c-0.38,0.03-0.712-0.255-0.741-0.635
			c-0.268-3.463-2.352-3.878-4.367-4.28c-1.204-0.24-2.341-0.467-2.939-1.371c-0.371-0.561-0.459-1.278-0.268-2.192
			c1.067-5.123,6.894-5.889,7.142-5.919c0.378-0.046,0.721,0.223,0.768,0.601c0.046,0.378-0.223,0.723-0.6,0.769
			c-0.208,0.026-5.093,0.683-5.958,4.83c-0.11,0.528-0.087,0.914,0.068,1.149c0.28,0.424,1.144,0.596,2.057,0.778
			c2.041,0.407,5.125,1.022,5.474,5.527C1288.916,266.44,1288.748,266.707,1288.492,266.825z"/>
		<path style="fill:#F69D85;" d="M1344.62,301.349L1344.62,301.349c-24.211,3.786-46.907-12.771-50.693-36.982l-3.559-22.756
			c-3.786-24.211,12.771-46.907,36.982-50.693l0,0c24.211-3.786,46.907,12.771,50.693,36.982l3.558,22.755
			C1385.389,274.867,1368.831,297.563,1344.62,301.349z"/>
		<path style="fill:#D1836B;" d="M1353.389,266.818c0.33,2.638-0.983,6.471-4.647,9.665c-4.973,4.336-15.791,6.236-21.111,4.171
			c-2.857-1.11-4.967-3.336-5.853-5.461c-0.755-1.831-0.605-3.587,0.755-4.493c2.949-1.958,12.033-0.93,17.614-3.706
			c6.008-2.99,10.395-4.6,12.303-2.461C1352.95,265.091,1353.276,265.878,1353.389,266.818z"/>
		<path style="fill:#FFFFFF;" d="M1353.389,266.818c-12.149,7.719-29.661,8.328-31.61,8.375c-0.755-1.831-0.605-3.587,0.755-4.493
			c2.949-1.958,12.033-0.93,17.614-3.706c6.008-2.99,10.395-4.6,12.303-2.461C1352.95,265.091,1353.276,265.878,1353.389,266.818z"
			/>
		<path style="fill:#AF5945;" d="M1345.037,279.591c-5.539,2.538-13.167,3.449-17.656,1.706c-2.802-1.089-5.193-3.326-6.24-5.839
			c-0.932-2.257-0.544-4.299,1.01-5.333c1.512-1.003,4.25-1.274,7.418-1.588c3.465-0.342,7.395-0.726,10.27-2.162
			c6.488-3.23,10.95-4.741,13.126-2.302c0.596,0.665,0.98,1.585,1.109,2.66c0.327,2.623-0.782,6.697-4.878,10.27
			C1348.069,277.986,1346.64,278.857,1345.037,279.591z M1323.366,271.029c-0.166,0.076-0.317,0.158-0.45,0.247
			c-1.461,0.972-0.752,3.043-0.499,3.654c0.71,1.705,2.519,3.937,5.464,5.081c5.302,2.058,15.792-0.022,20.407-4.048
			c3.693-3.221,4.687-6.893,4.416-9.06l-0.001-0.004c-0.095-0.793-0.36-1.452-0.767-1.906c-1.68-1.884-6.508,0.146-11.481,2.618
			c-3.107,1.545-7.166,1.946-10.75,2.3C1327.155,270.164,1324.73,270.404,1323.366,271.029z"/>
		<path style="fill:#D1836B;" d="M1360.915,248.149c0.733,2.252-0.675,4.729-3.143,5.532c-2.469,0.803-5.063-0.372-5.796-2.625
			c-0.733-2.252,0.675-4.729,3.143-5.532C1357.587,244.721,1360.182,245.896,1360.915,248.149z"/>
		<path style="fill:#D1836B;" d="M1313.684,259.605c0.732,2.252-0.675,4.729-3.143,5.532c-2.468,0.803-5.063-0.372-5.796-2.625
			c-0.732-2.252,0.675-4.729,3.143-5.532C1310.356,256.177,1312.951,257.352,1313.684,259.605z"/>
		<path style="fill:#5E3628;" d="M1355.79,183.684c0,0,3.411-15.501-5.161-20.774c-8.746-5.38-19.181,3.769-23.236,10.924
			c0,0-2.956-6.452-8.204-11.989c-9.145-9.648-29.259-0.399-13.639,19.487c0,0-7.721-9.565-22.506-3.907
			c-14.785,5.658-5.255,22.201,8.299,23.797c0,0-16.617-1.587-19.932,12.476c-1.573,6.675,2.001,10.864,8.098,12.462
			c1.044,5.372,3.97,15.421,11.804,21.498c0,0-0.137-13.634,4.688-22.226c3.126-0.848,6.335-2.058,9.495-3.653
			c17.889-9.031,26.353-20.436,26.353-20.436s4.649,9.299,15.065,11.497c5.203,1.098,10.582,0.761,15.479-0.803l-0.197,0.269
			c0,0,9.457,6.594,16.552,20.108c0,0,10.375-17.723-3.673-28.661C1382.03,195.436,1374.72,176.123,1355.79,183.684z"/>
		<path style="fill:#AF5945;" d="M1333.613,260.402c-0.097,0.045-0.206,0.067-0.321,0.061c-0.648-0.031-6.334-0.394-6.592-3.349
			c-0.217-2.496,1.629-14.156,1.707-14.651c0.06-0.376,0.413-0.633,0.79-0.573c0.376,0.06,0.633,0.414,0.573,0.79
			c-0.528,3.326-1.864,12.382-1.695,14.314c0.121,1.387,3.612,2.007,5.284,2.09c0.38,0.019,0.674,0.343,0.655,0.723
			C1334.002,260.074,1333.84,260.298,1333.613,260.402z"/>
		<path style="fill:#30313C;" d="M1313.835,244.934c0.71,3.232,2.622,5.559,4.27,5.197c1.648-0.362,2.408-3.276,1.698-6.508
			c-0.71-3.232-2.622-5.559-4.27-5.197C1313.885,238.787,1313.125,241.701,1313.835,244.934z"/>
		<path style="fill:#30313C;" d="M1338.259,240.375c0.71,3.232,2.622,5.559,4.27,5.197c1.648-0.362,2.408-3.276,1.698-6.508
			c-0.71-3.232-2.622-5.559-4.27-5.197C1338.309,234.229,1337.549,237.143,1338.259,240.375z"/>
		<path style="fill:#AF5945;" d="M1319.68,229.584c-0.159,0.073-0.336,0.111-0.523,0.104c-7.349-0.262-13.346,5.213-13.405,5.268
			c-0.47,0.433-1.203,0.406-1.637-0.062c-0.435-0.469-0.407-1.202,0.062-1.637c0.273-0.252,6.768-6.179,15.063-5.884
			c0.639,0.023,1.139,0.56,1.117,1.199C1320.34,229.024,1320.066,229.407,1319.68,229.584z"/>
		<path style="fill:#AF5945;" d="M1351.402,226.242c-0.271,0.124-0.591,0.144-0.892,0.031c-9.087-3.436-13.654,0.469-13.699,0.509
			c-0.479,0.421-1.211,0.379-1.635-0.101c-0.424-0.48-0.379-1.212,0.101-1.635c0.226-0.2,5.672-4.865,16.054-0.94
			c0.599,0.226,0.9,0.895,0.674,1.493C1351.891,225.895,1351.67,226.119,1351.402,226.242z"/>
		<path style="fill:#339E33;" d="M1368.105,494.366c0,0-2.071,34.703,25.835,51.731
			C1393.94,546.097,1402.618,505.487,1368.105,494.366z"/>
		<path style="fill:#5E3628;" d="M1367.116,259.474l-8.003-3.026c-3.11-0.832-6.381-1.096-9.537-0.465
			c-1.809,0.362-3.567,0.966-5.22,1.824c-8.936,4.639-17.916,5.836-23.147,6.103c-0.033,0.002-0.066,0.003-0.098,0.005
			c-4.371,0.242-8.515,2.032-11.914,4.793l-4.446,4.576c-4.81-6.338-6.063-13.127-8.214-17.931
			c-2.176-4.858-5.085-11.45-5.085-11.45s-2.258,24.198,9.054,42.026c16.422,25.883,52.536,22.47,68.968,6.755
			c22.117-21.153,8.572-64.784,8.572-64.784s-3.922,6.808-4.649,13.517C1371.711,256.947,1367.116,259.474,1367.116,259.474z
			 M1357.845,264.022c1.382,4.33-3.809,16.635-18.104,19.573c-15.177,3.121-21.198-2.174-23.692-7.617
			c-0.441-0.962-0.573-1.906-0.511-2.793c0.212-3.071,2.917-5.354,5.992-5.496c4.781-0.22,14.561-1.482,26.845-7.423
			c1.402-0.678,3.004-0.87,4.496-0.423C1354.746,260.405,1357.066,261.581,1357.845,264.022z"/>
		<path style="fill:#F69D85;" d="M1511.975,489.673l-143.919,55.171c-9.443,3.62-20.033-1.101-23.653-10.544
			c-3.62-9.443,1.101-20.032,10.544-23.652l120.978-46.376l-77.627-100.869c-6.167-8.014-4.67-19.512,3.344-25.679
			c8.015-6.169,19.511-4.671,25.679,3.344l92.611,120.34c3.527,4.583,4.681,10.563,3.114,16.13
			C1521.48,483.104,1517.375,487.603,1511.975,489.673z"/>
		<path style="fill:#F69D85;" d="M1379.376,540.484c0,0-12.964,7.142-29.85,7.947c-15.815,0.754-21.294-3.14-26.226-7.96
			c-4.932-4.82,16.982-23.136,27.314-25.117C1360.947,513.373,1373.88,525.819,1379.376,540.484z"/>
		<path style="fill:#F69D85;" d="M1350.626,548.367c-8.218,0.715-16.021,3.078-22.885,7.695c-3.09,2.078-8.296,8.826-12.454,4.359
			c-5.2-6.478,23.889-24.794,29.562-27.067C1359.206,524.949,1364.886,548.352,1350.626,548.367z"/>
		<path style="fill:#F69D85;" d="M1343.205,543.532c-8.005,0.297-15.926,2.994-23.07,6.665c-4.039,1.283-9.017,8.288-12.842,3.413
			c-3.434-5.389,11.828-13.89,15.677-16.752c5.808-3.417,12.107-6.326,18.781-7.703
			C1351.149,528.247,1352.608,542.538,1343.205,543.532z"/>
		<path style="fill:#F69D85;" d="M1341.548,536.849c-12.353-0.327-24.983,3.567-34.839,11.132c-3.625,2.775-8.241-2.586-4.997-5.755
			c3.754-4.011,8.155-7.586,12.869-10.458c8.248-4.857,17.461-8.327,27.019-9.403
			C1351.987,521.602,1351.943,537.687,1341.548,536.849z"/>
		<path style="fill:#F69D85;" d="M1353.63,524.191c-12.98-0.393-26.42,1.633-38.207,7.196c-3.89,1.87-7.513,4.231-10.747,7.079
			c-1.58,1.478-4.093,1.36-5.511-0.281c-5.26-7.27,19.475-19.701,25.098-21.727c9.608-3.682,21.444-5.935,31.714-6.629
			C1366.3,509.527,1363.916,525.333,1353.63,524.191z"/>
		<path style="fill:#AF5945;" d="M1321.068,550.131c-0.155,0.019-0.316-0.034-0.43-0.157c-0.187-0.202-0.174-0.518,0.028-0.705
			c0.059-0.054,5.938-5.427,15.382-9.246c0.256-0.102,0.547,0.02,0.65,0.276c0.104,0.256-0.02,0.547-0.276,0.65
			c-9.266,3.746-15.022,9.001-15.079,9.054C1321.264,550.076,1321.167,550.119,1321.068,550.131z"/>
		<path style="fill:#AF5945;" d="M1313.907,543.855c-0.166,0.021-0.338-0.042-0.451-0.181c-0.173-0.214-0.141-0.528,0.074-0.702
			c0.068-0.055,6.897-5.546,17.109-10.203c0.253-0.113,0.547-0.004,0.661,0.247c0.114,0.251,0.004,0.547-0.247,0.661
			c-10.09,4.601-16.828,10.016-16.895,10.07C1314.084,543.808,1313.997,543.844,1313.907,543.855z"/>
		<path style="fill:#AF5945;" d="M1310.655,534.828c-0.185,0.023-0.376-0.058-0.483-0.226c-0.149-0.232-0.082-0.541,0.15-0.69
			c0.082-0.053,8.282-5.303,15.99-8.547c0.255-0.107,0.547,0.013,0.654,0.266c0.107,0.254-0.012,0.547-0.266,0.654
			c-7.629,3.211-15.756,8.415-15.838,8.467C1310.798,534.794,1310.726,534.819,1310.655,534.828z"/>
		<path style="fill:#60BF60;" d="M1379.782,314.584c0,0,39.379-11.92,82.453,31.029s87.09,99.493,78.353,135.072
			c-9.119,37.138-146.649,65.412-146.649,65.412s2.876-27.359-25.835-51.731l79.027-35.685
			C1447.132,458.681,1352.036,349.952,1379.782,314.584z"/>
		<path style="fill:#64656E;" d="M1214.972,676.124c-0.117,0.011-0.237-0.005-0.353-0.052c-0.382-0.156-0.565-0.593-0.409-0.974
			c15.693-38.358,84.372-83.247,85.063-83.696c0.346-0.224,0.809-0.126,1.033,0.22c0.224,0.346,0.126,0.808-0.22,1.033
			c-0.688,0.447-68.978,45.083-84.494,83.008C1215.483,675.93,1215.239,676.098,1214.972,676.124z"/>
		<path style="fill:#64656E;" d="M1128.398,816.859c-0.039,0.004-0.079,0.005-0.119,0.002c-39.167-2.481-78.103-26.734-78.491-26.98
			c-0.349-0.22-0.454-0.68-0.234-1.03c0.22-0.349,0.682-0.455,1.03-0.234c0.386,0.242,39.009,24.297,77.79,26.754
			c0.411,0.026,0.724,0.381,0.698,0.792C1129.048,816.534,1128.757,816.825,1128.398,816.859z"/>
		<path style="fill:#64656E;" d="M1133.666,805.125c-0.05,0.005-0.101,0.005-0.152-0.001c-40.581-4.363-79.847-28.107-80.24-28.347
			c-0.352-0.214-0.463-0.674-0.248-1.026c0.216-0.352,0.675-0.462,1.027-0.248c0.389,0.237,39.379,23.81,79.621,28.137
			c0.41,0.044,0.707,0.412,0.663,0.822C1134.297,804.82,1134.011,805.092,1133.666,805.125z"/>
		<path style="fill:#64656E;" d="M1270.826,890.037c-32.98,3.156-56.158-1.569-56.443-1.629c-0.403-0.084-0.662-0.481-0.577-0.884
			c0.085-0.403,0.481-0.663,0.884-0.577c0.35,0.073,35.524,7.23,80.898-2.14c0.396-0.098,0.799,0.176,0.882,0.58
			c0.084,0.404-0.177,0.799-0.58,0.882C1287.099,888.086,1278.683,889.286,1270.826,890.037z"/>
		<path style="fill:#64656E;" d="M1269.779,877.8c-30.573,2.926-56.379-2.876-56.708-2.952c-0.402-0.093-0.652-0.494-0.56-0.896
			c0.092-0.403,0.494-0.65,0.895-0.56c0.418,0.096,42.271,9.497,82.383-1.877c0.394-0.116,0.809,0.117,0.922,0.515
			c0.113,0.396-0.118,0.809-0.515,0.921C1287.324,875.469,1278.361,876.979,1269.779,877.8z"/>
		<path style="fill:#339E33;" d="M1368.176,495.11c-0.309,0.03-0.617-0.137-0.752-0.436c-0.17-0.376-0.003-0.818,0.373-0.988
			l78.187-35.306c-5.027-6.86-43.221-59.102-58.028-82.868c-0.218-0.35-0.111-0.811,0.239-1.029c0.349-0.216,0.811-0.111,1.029,0.24
			c15.755,25.287,58.084,82.937,58.509,83.516c0.133,0.182,0.178,0.414,0.121,0.632c-0.057,0.218-0.21,0.398-0.415,0.491
			l-79.027,35.686C1368.335,495.082,1368.255,495.102,1368.176,495.11z"/>
		<path style="fill:#339E33;" d="M1284.143,514.523c-0.403,0.038-0.765-0.252-0.813-0.657
			c-8.837-75.584,11.47-129.59,11.676-130.127c0.148-0.385,0.581-0.576,0.965-0.429c0.385,0.148,0.577,0.58,0.429,0.964
			c-0.205,0.533-20.379,54.221-11.587,129.419c0.048,0.41-0.246,0.781-0.655,0.829
			C1284.154,514.521,1284.149,514.522,1284.143,514.523z"/>
		<path style="fill:#404660;" d="M1306.462,575.048l-179.778,19.877l-36.58-103.093c-3.173-8.938,2.819-18.491,12.24-19.532
			l149.751-16.557c6.783-0.75,13.192,3.263,15.476,9.698l36.88,103.938L1306.462,575.048z"/>
		<path style="fill:#606A97;" d="M1292.914,576.546l-166.23,18.379l-36.58-103.093c-3.173-8.938,2.819-18.491,12.24-19.532
			l136.204-15.059c6.783-0.75,13.192,3.263,15.476,9.698L1292.914,576.546z"/>
		
			<rect x="1297.364" y="558.719" transform="matrix(0.9939 -0.1099 0.1099 0.9939 -53.8788 151.5434)" style="fill:#404660;" width="101.083" height="11.712"/>
		<path style="fill:#339E33;" d="M1394.01,546.841c-0.38,0.036-0.732-0.222-0.804-0.604c-0.077-0.406,0.189-0.797,0.594-0.874
			c0.496-0.094,50.178-9.643,95.759-28.548c0.38-0.155,0.818,0.021,0.976,0.404c0.158,0.38-0.022,0.818-0.403,0.975
			c-45.728,18.966-95.556,28.542-96.054,28.637C1394.056,546.835,1394.033,546.839,1394.01,546.841z"/>
	</g>
	<g id="_x34__1_">
		<path style="fill:#997243;" d="M2499.212,1079.935c0,0-28.717,0.238-46.604,22.681
			C2452.608,1102.616,2481.065,1109.734,2499.212,1079.935z"/>
		<path style="fill:#2A3047;" d="M2728.087,1041.045c0,0,17.67,12.146,29.712,42.978c8.719,22.322,31.102,59.25,40.421,80.728
			c37.655,86.778,4.746,132.183-110.851,128.694c-54.608-1.649-66.97-43.866-58.047-80.928
			c8.873-36.856,19.797-72.413,10.721-112.966c0,0,8.893-36.067,30.215-42.797S2728.087,1041.045,2728.087,1041.045z"/>
		
			<rect x="2663.858" y="1134.706" transform="matrix(0.0367 -0.9993 0.9993 0.0367 1442.6938 3807.5713)" style="fill:#F69D85;" width="65.025" height="41.481"/>
		<path style="fill:#D1836B;" d="M2705.28,1158.596c0,0-13.145,9.867-30.016,6.456l0.831-22.621L2705.28,1158.596z"/>
		<path style="fill:#F69D85;" d="M2687.411,1161.447L2687.411,1161.447c-24.059-1.208-42.584-21.69-41.376-45.749l1.135-22.613
			c1.208-24.059,21.69-42.583,45.749-41.376l0,0c24.059,1.208,42.583,21.69,41.376,45.749l-1.135,22.613
			C2731.952,1144.13,2711.47,1162.655,2687.411,1161.447z"/>
		<path style="fill:#F69D85;" d="M2693.87,1423.868c-38.288-1.407-94.822-13.962-77.99-65.976
			c8.644-26.711,19.55-62.855,13.551-111.48c-4.691-38.025,26.159-76.1,65.123-75.887l2.515,0.092
			c37.343,1.968,54.32,39.906,48.978,77.845c-6.885,48.899,3.282,83.453,12.589,108.453
			C2784.149,1425.448,2693.87,1423.868,2693.87,1423.868z"/>
		<path style="fill:#F69D85;" d="M2682.879,1208.82c1.866-14.023-7.988-26.904-22.011-28.771l-114.734-15.272l-63.025-97.191
			c-4.396-6.795-13.236-9.497-20.791-5.997c-8.272,3.833-11.871,13.646-8.039,21.918l54.441,117.499
			c3.139,6.642,9.541,11.743,17.365,12.784l128.022,17.041C2668.131,1232.698,2681.012,1222.843,2682.879,1208.82z"/>
		<path style="fill:#30313C;" d="M2696.884,1103.067c-0.162,3.249,1.05,5.95,2.707,6.032c1.656,0.082,3.13-2.485,3.292-5.734
			c0.161-3.249-1.05-5.95-2.707-6.032C2698.52,1097.251,2697.046,1099.818,2696.884,1103.067z"/>
		<path style="fill:#FFB12A;" d="M2674.949,1173.547c0,0-45.594-9.709-123.58-12.968c0,0-32.058-53.108-52.158-80.645
			c0,0-17.665,21.192-46.604,22.681c0,0,34.264,103.121,62.988,114.957c28.724,11.836,111.406,23.555,111.406,23.555
			L2674.949,1173.547z"/>
		<path style="fill:#30313C;" d="M2670.583,1101.759c-0.162,3.249,1.05,5.95,2.707,6.032c1.656,0.082,3.13-2.485,3.292-5.734
			c0.162-3.249-1.05-5.95-2.707-6.032C2672.218,1095.943,2670.744,1098.51,2670.583,1101.759z"/>
		<path style="fill:#E58A76;" d="M2715.096,1115.619c0.254,2.314-1.597,4.416-4.133,4.694c-2.536,0.278-4.798-1.373-5.052-3.687
			c-0.254-2.314,1.597-4.416,4.133-4.694C2712.581,1111.654,2714.842,1113.305,2715.096,1115.619z"/>
		<path style="fill:#E58A76;" d="M2666.003,1115.074c0.254,2.314-1.597,4.416-4.133,4.694s-4.798-1.373-5.052-3.687
			c-0.253-2.315,1.597-4.416,4.133-4.694C2663.488,1111.109,2665.749,1112.76,2666.003,1115.074z"/>
		<path style="fill:#FFB12A;" d="M2674.949,1173.547c0,0-20.857,3.854-42.22,33.899c-5.857,8.237-19.346,30.311-19.831,43.495
			c-0.527,14.334,13.796,23.006,12.843,48.962c-0.946,25.735-20.38,41.549-9.861,57.989c6.187,9.67,102.17,26.064,143.546,1.505
			c23.02-13.664-14.721-44.592-3.307-115.16c8.692-53.741-20.822-63.443-39.688-69.166c0,0-16.17,40.492-30.406,39.241
			C2671.411,1213.027,2674.949,1173.547,2674.949,1173.547z"/>
		<path style="fill:#F69D85;" d="M2747.501,1111.6c-0.321,6.391-5.762,11.312-12.153,10.991
			c-6.391-0.321-11.312-5.762-10.991-12.153c0.321-6.391,5.761-11.312,12.153-10.991
			C2742.901,1099.768,2747.822,1105.209,2747.501,1111.6z"/>
		<path style="fill:#2A3047;" d="M2676.101,1042.571c0,0-20.021-6.839-33.976,11.912c-12.207,16.401-7.237,34.426,0.232,51.212
			C2642.356,1105.695,2670.236,1069.122,2676.101,1042.571z"/>
		<path style="fill:#F69D85;" d="M2657.971,1109.03c-0.321,6.391-5.762,11.312-12.153,10.991
			c-6.391-0.321-11.312-5.762-10.991-12.153c0.321-6.391,5.762-11.312,12.153-10.991
			C2653.371,1097.198,2658.292,1102.639,2657.971,1109.03z"/>
		<path style="fill:#D1836B;" d="M2691.697,1131.312c-0.023,3.164-3.009,5.708-6.671,5.681c-3.655-0.029-6.603-2.618-6.58-5.782
			c0.005-0.715,0.166-1.408,0.45-2.035c0.967-2.154,3.39-3.67,6.221-3.647c2.472,0.017,4.62,1.211,5.747,2.964
			C2691.405,1129.329,2691.702,1130.287,2691.697,1131.312z"/>
		<path style="fill:#FFFFFF;" d="M2690.865,1128.494c-7.787,3.428-11.965,0.69-11.965,0.69l-0.002-0.007
			c0.967-2.154,3.39-3.67,6.221-3.647C2687.59,1125.548,2689.738,1126.741,2690.865,1128.494z"/>
		<path style="fill:#AF5945;" d="M2645.824,1115.206c-0.327-0.065-0.564-0.364-0.544-0.707c0.208-3.408-1.766-4.094-3.674-4.758
			c-1.139-0.396-2.216-0.771-2.676-1.732c-0.286-0.597-0.274-1.307,0.036-2.171c1.733-4.844,7.509-4.801,7.754-4.797
			c0.373,0.002,0.672,0.314,0.666,0.689c-0.005,0.374-0.314,0.673-0.688,0.668c-0.206-0.003-5.051-0.024-6.454,3.897
			c-0.178,0.499-0.208,0.878-0.089,1.128c0.216,0.451,1.032,0.735,1.898,1.036c1.932,0.672,4.852,1.689,4.583,6.122
			c-0.023,0.374-0.345,0.659-0.719,0.636C2645.885,1115.216,2645.854,1115.212,2645.824,1115.206z"/>
		<path style="fill:#AF5945;" d="M2735.499,1117.681c-0.287-0.057-0.514-0.297-0.543-0.603c-0.409-4.424,2.479-5.531,4.388-6.263
			c0.855-0.328,1.663-0.638,1.865-1.095c0.112-0.253,0.07-0.632-0.124-1.125c-1.533-3.893-6.522-3.695-6.573-3.693
			c-0.373,0.018-0.692-0.271-0.71-0.645c-0.018-0.374,0.271-0.693,0.645-0.711c0.245-0.012,6.016-0.236,7.901,4.552
			c0.336,0.854,0.37,1.563,0.104,2.169c-0.429,0.975-1.494,1.383-2.621,1.815c-1.886,0.723-3.837,1.471-3.523,4.871
			c0.034,0.373-0.24,0.703-0.613,0.738C2735.627,1117.697,2735.561,1117.693,2735.499,1117.681z"/>
		<path style="fill:#2A3047;" d="M2660.454,1055.369c0,0,9.021,23.779,32.828,24.361c27.957,0.684,39.444,36.258,39.444,36.258
			s16.165-26.806,11.519-46.016C2733.614,1026.022,2688.226,1015.139,2660.454,1055.369z"/>
		<path style="fill:#AF5945;" d="M2667.241,1089.897c-0.146-0.029-0.288-0.088-0.419-0.177c-0.518-0.355-0.652-1.06-0.299-1.579
			c0.108-0.16,2.714-3.923,6.867-4.463c2.46-0.319,4.891,0.545,7.226,2.569c0.475,0.412,0.527,1.131,0.114,1.606
			c-0.411,0.475-1.131,0.526-1.606,0.114c-1.817-1.576-3.643-2.259-5.426-2.034c-3.133,0.399-5.273,3.459-5.294,3.49
			C2668.139,1089.812,2667.675,1089.984,2667.241,1089.897z"/>
		<path style="fill:#AF5945;" d="M2693.462,1089.045c-0.198-0.04-0.387-0.132-0.547-0.279c-0.46-0.425-0.493-1.141-0.069-1.604
			c0.106-0.116,2.636-2.833,6.355-2.735c2.64,0.069,5.136,1.512,7.421,4.288c0.399,0.486,0.33,1.203-0.156,1.603
			c-0.486,0.399-1.203,0.33-1.603-0.156c-1.84-2.236-3.76-3.4-5.7-3.458c-2.673-0.082-4.621,1.978-4.64,1.998
			C2694.243,1089.004,2693.838,1089.12,2693.462,1089.045z"/>
		<path style="fill:#AF5945;" d="M2685.043,1121.087c-0.034-0.007-0.068-0.017-0.102-0.029c-0.598-0.22-5.826-2.232-5.199-5.08
			c0.53-2.405,5.69-12.8,5.909-13.241c0.167-0.336,0.574-0.472,0.91-0.305c0.335,0.167,0.472,0.574,0.306,0.91
			c-1.474,2.965-5.389,11.067-5.799,12.929c-0.295,1.339,2.798,2.946,4.342,3.514c0.352,0.129,0.532,0.52,0.403,0.871
			C2685.695,1120.974,2685.366,1121.152,2685.043,1121.087z"/>
		<path style="fill:#DBBFB2;" d="M2637.048,1281.878c-10.471-2.093-16.628-7.67-16.957-7.974c-0.275-0.254-0.292-0.683-0.038-0.958
			c0.255-0.276,0.686-0.291,0.958-0.039c0.1,0.092,10.216,9.225,26.28,8.334c0.368-0.022,0.694,0.265,0.715,0.64
			c0.021,0.375-0.266,0.694-0.64,0.715C2643.58,1282.807,2640.126,1282.493,2637.048,1281.878z"/>
		<path style="fill:#997243;" d="M2693.436,1284.615c-1.145-0.229-1.766-0.399-1.798-0.408c-0.361-0.102-0.571-0.477-0.469-0.837
			c0.102-0.361,0.478-0.569,0.837-0.469c0.17,0.049,17.484,4.766,41.145-2.15c0.362-0.105,0.737,0.101,0.842,0.461
			c0.105,0.36-0.101,0.737-0.46,0.842C2713.894,1287.794,2698.519,1285.631,2693.436,1284.615z"/>
		<path style="fill:#F69D85;" d="M2483.398,1072.828c0,0-9.674-15.832-24.162-20.815c-14.488-4.984-21.313-3.661-26.792-0.153
			c-5.48,3.508,12.053,25.015,21.46,28.942C2463.312,1084.729,2475.697,1085.413,2483.398,1072.828z"/>
		<path style="fill:#F69D85;" d="M2484.227,1069.392l-0.45-0.905c-0.145-0.29-0.253-0.484-0.366-0.69
			c-0.114-0.211-0.227-0.412-0.338-0.602c-0.224-0.388-0.447-0.781-0.675-1.15c-0.449-0.756-0.914-1.488-1.381-2.215
			c-0.465-0.729-0.955-1.434-1.431-2.148l-1.486-2.095c-2.018-2.759-4.192-5.393-6.506-7.901c-2.295-2.52-4.793-4.872-7.423-7.06
			l-1.996-1.614l-2.088-1.509l-1.043-0.747l-1.093-0.689l-2.18-1.365c-1.636-1.027-3.822-0.738-5.128,0.766
			c-1.443,1.663-1.265,4.182,0.399,5.625l0.239,0.207l1.674,1.452l0.834,0.72l0.792,0.78l1.576,1.552l1.024,1.13
			c-0.59-0.288-1.181-0.595-1.773-0.901c-1.276-0.672-2.546-1.383-3.806-2.118c-2.521-1.472-4.977-3.079-7.364-4.784
			c-1.209-0.839-2.356-1.745-3.529-2.636l-1.703-1.393l-0.853-0.7l-0.821-0.729c-2.242-1.911-4.277-4.013-6.289-6.164l-0.118-0.127
			c-1.188-1.273-3.153-1.552-4.667-0.573c-1.7,1.099-2.187,3.368-1.087,5.068c1.762,2.725,3.603,5.437,5.668,7.949l0.76,0.959
			l0.791,0.927l0.557,0.648c-0.179-0.125-0.358-0.249-0.539-0.373l-1.791-1.325l-0.897-0.666l-0.867-0.697
			c-2.362-1.821-4.529-3.84-6.675-5.908l-0.121-0.117c-1.255-1.211-3.236-1.386-4.696-0.326c-1.638,1.189-2.002,3.481-0.813,5.119
			c1.923,2.649,3.922,5.281,6.13,7.705l0.777,0.884l-0.616-0.387l-1.841-1.3l-0.925-0.654l-0.875-0.705l-1.76-1.418l-0.222-0.18
			c-1.361-1.099-3.355-1.091-4.712,0.105c-1.516,1.335-1.662,3.647-0.327,5.162l1.708,1.939l0.862,0.97l0.91,0.913l1.835,1.825
			l1.921,1.722c1.03,0.895,2.088,1.76,3.16,2.604l-1.594-1.037l-1.13-0.736l-1.059-0.82l-2.136-1.644l-0.273-0.211
			c-1.416-1.092-3.456-1.006-4.774,0.277c-1.446,1.407-1.477,3.719-0.071,5.165l2.164,2.224l1.091,1.114l1.164,1.025l2.35,2.046
			l2.482,1.871c0.418,0.306,0.825,0.637,1.256,0.923l1.298,0.851c0.873,0.555,1.726,1.164,2.624,1.673l2.7,1.542
			c0.902,0.515,1.84,0.943,2.762,1.418c3.717,1.826,7.564,3.385,11.513,4.656l2.984,0.9c1.008,0.264,2.007,0.556,3.029,0.793
			c1.018,0.246,2.043,0.483,3.089,0.688c0.515,0.112,1.056,0.202,1.589,0.299c0.262,0.049,0.539,0.094,0.825,0.136
			c0.279,0.043,0.548,0.087,0.936,0.129l0.898,0.099c0.492,0.051,0.998,0.049,1.51-0.009c3.836-0.435,6.593-3.897,6.158-7.733
			c-0.435-3.836-3.897-6.593-7.733-6.158c-0.086,0.01-0.274,0.008-0.46,0.006c0.282-0.693,0.464-1.441,0.51-2.23
			c0.047-0.793-0.046-1.56-0.247-2.285c0.103-0.233,0.194-0.472,0.273-0.72c3.25,0.335,6.395-1.646,7.408-4.885
			c0.088-0.28,0.151-0.562,0.202-0.843c1.333,2.068,2.578,4.194,3.708,6.374l0.992,1.986c0.308,0.67,0.634,1.333,0.927,2.003
			c0.296,0.67,0.589,1.338,0.855,2.003c0.142,0.335,0.263,0.66,0.39,0.986c0.066,0.166,0.124,0.325,0.177,0.475
			c0.056,0.155,0.116,0.321,0.133,0.395c0.121,0.542,0.315,1.113,0.573,1.632c1.723,3.467,5.931,4.88,9.398,3.157
			C2484.537,1077.066,2485.95,1072.859,2484.227,1069.392z"/>
		<path style="fill:#AF5945;" d="M2438.297,1072.238c-0.043-0.009-0.087-0.022-0.13-0.04c-8.602-3.605-15.663-9.938-15.733-10.001
			c-0.278-0.251-0.3-0.68-0.049-0.958c0.252-0.277,0.68-0.299,0.959-0.049c0.069,0.062,6.966,6.243,15.349,9.757
			c0.346,0.145,0.508,0.542,0.364,0.888C2438.928,1072.137,2438.608,1072.3,2438.297,1072.238z"/>
		<path style="fill:#AF5945;" d="M2439.482,1063.449c-0.082-0.016-0.162-0.048-0.236-0.096
			c-9.306-6.026-15.647-12.443-15.709-12.507c-0.263-0.267-0.259-0.697,0.008-0.959c0.269-0.263,0.697-0.258,0.96,0.008
			c0.062,0.063,6.305,6.379,15.479,12.319c0.315,0.204,0.404,0.624,0.2,0.939
			C2440.029,1063.392,2439.747,1063.501,2439.482,1063.449z"/>
		<path style="fill:#AF5945;" d="M2445.911,1057.872c-0.085-0.017-0.168-0.051-0.245-0.102c-5.762-3.862-12.045-10.604-12.31-10.89
			c-0.255-0.274-0.239-0.704,0.036-0.959c0.275-0.255,0.702-0.241,0.959,0.036c0.064,0.068,6.442,6.913,12.071,10.686
			c0.311,0.209,0.395,0.63,0.186,0.942C2446.45,1057.819,2446.172,1057.924,2445.911,1057.872z"/>
		<path style="fill:#AF5945;" d="M2453.274,1070.546c-0.203-0.041-0.385-0.174-0.481-0.375c-0.16-0.339-0.016-0.744,0.323-0.904
			c2.889-1.367,6.637-1.586,8.646-1.593c-2.877-4.267-3.834-9.828-3.876-10.084c-0.062-0.37,0.188-0.719,0.557-0.781
			c0.368-0.063,0.719,0.187,0.781,0.557c0.01,0.065,1.127,6.535,4.433,10.59c0.17,0.209,0.201,0.5,0.077,0.739
			c-0.123,0.24-0.377,0.384-0.647,0.367c-0.055-0.004-5.653-0.338-9.392,1.431
			C2453.56,1070.558,2453.412,1070.573,2453.274,1070.546z"/>
		<path style="fill:#997243;" d="M2615.369,1240.068c-0.054-0.011-0.108-0.028-0.16-0.054c-0.338-0.162-0.481-0.567-0.319-0.905
			c0.07-0.147,7.158-14.825,19.6-28.503c0.252-0.277,0.682-0.297,0.959-0.045c0.277,0.252,0.297,0.681,0.045,0.958
			c-12.308,13.531-19.31,28.03-19.379,28.175C2615.977,1239.981,2615.667,1240.128,2615.369,1240.068z"/>
		<path style="fill:#997243;" d="M2456.787,1115.531c-0.296-0.059-0.526-0.313-0.544-0.628c-0.021-0.374,0.266-0.694,0.64-0.715
			c0.323-0.018,32.445-2.056,49.126-24.268c0.225-0.299,0.649-0.36,0.95-0.135c0.299,0.225,0.36,0.651,0.135,0.95
			c-17.065,22.725-49.807,24.79-50.136,24.808C2456.9,1115.547,2456.843,1115.542,2456.787,1115.531z"/>
		<path style="fill:#F69D85;" d="M2675.532,1422.835l40.555,195.993l0.92,4.449c0.171,0.829,0.441,1.705,0.735,2.47l71.458,181.814
			c5.164,13.138,20,19.602,33.137,14.438c13.138-5.164,19.605-19.991,14.442-33.129l-71.395-181.839l4.286-193.21
			c0.345-26.267-20.352-38.118-46.619-38.464c-26.267-0.345-48.157,10.947-48.503,37.214
			C2674.504,1416.003,2674.884,1419.601,2675.532,1422.835z"/>
		<path style="fill:#F69D85;" d="M2616.267,1417.88l-7.752,199.995l-0.176,4.54c-0.033,0.846,0.018,1.761,0.119,2.574
			l25.654,193.661c1.854,13.994,14.701,23.835,28.694,21.981s23.836-14.692,21.983-28.686l-25.587-193.67l50.608-186.513
			c6.65-25.414-8.561-51.406-33.975-58.056c-25.414-6.65-51.406,8.561-58.056,33.975
			C2616.912,1411.001,2616.416,1414.585,2616.267,1417.88z"/>
		<path style="fill:#404D7F;" d="M2587.506,1880.493l61.634-0.76l12.926-27.687l5.587,27.452l17.801-0.217
			c16.227-34.045-1.192-76.538-1.192-76.538s-25.766,5.253-56.73,0.959l0.726,27.619l-45.965,33.488
			C2575.46,1869.786,2579.055,1880.597,2587.506,1880.493z"/>
		<path style="fill:#606A97;" d="M2674.525,1841.458c-2.675-1.101-3.955-4.173-2.854-6.848l0,0c0.533-1.296,1.54-2.307,2.833-2.845
			c1.293-0.539,2.719-0.542,4.015-0.008c1.296,0.533,2.307,1.539,2.846,2.833c0.539,1.293,0.542,2.719,0.009,4.015
			c-0.533,1.296-1.54,2.306-2.833,2.845c-0.638,0.266-1.309,0.401-1.981,0.406
			C2675.871,1841.861,2675.181,1841.728,2674.525,1841.458z M2675.025,1833.014c-0.959,0.4-1.706,1.15-2.102,2.111
			c-0.817,1.984,0.133,4.264,2.118,5.081c0.961,0.396,2.019,0.393,2.978-0.006c0.96-0.4,1.706-1.15,2.102-2.111
			c0.396-0.961,0.394-2.02-0.006-2.979s-1.15-1.706-2.111-2.102c-0.487-0.2-0.999-0.299-1.51-0.295
			C2675.996,1832.717,2675.498,1832.817,2675.025,1833.014z"/>
		<path style="fill:#3E8EDD;" d="M2576.648,1585.681c14.472-139.095,53.978-221.006,53.978-221.006s13.307,2.282,32.147,3.91
			c4.664,0.394,54.482,4.216,93.119-8.865c0,0,37.661,32.395,38.196,106.681c0.356,49.473-3.437,138.253-3.437,138.253
			l60.911,150.221c-118.524,56.029-252.146,31.745-252.146,31.745S2570.175,1647.898,2576.648,1585.681z"/>
		<path style="fill:#404D7F;" d="M2758.827,1878.796l59.644-15.555l5.89-29.983l12.023,25.304l17.227-4.489
			c7.567-36.947-19.557-74.007-19.557-74.007s-23.747,11.293-54.836,14.569l7.344,26.635l-36.566,43.556
			C2744.561,1871.299,2750.65,1880.929,2758.827,1878.796z"/>
		<path style="fill:#606A97;" d="M2833.91,1819.986c-2.861-0.426-4.842-3.1-4.417-5.961l0,0c0.206-1.386,0.94-2.609,2.066-3.443
			c1.125-0.834,2.509-1.18,3.895-0.973c1.386,0.206,2.609,0.939,3.443,2.066c0.834,1.126,1.18,2.509,0.973,3.895
			c-0.206,1.386-0.94,2.609-2.066,3.443c-0.556,0.412-1.174,0.704-1.825,0.87C2835.313,1820.054,2834.612,1820.091,2833.91,1819.986
			z M2832.366,1811.67c-0.835,0.619-1.38,1.526-1.533,2.554c-0.316,2.123,1.154,4.107,3.277,4.423
			c1.028,0.154,2.055-0.104,2.89-0.722c0.836-0.619,1.38-1.526,1.533-2.554c0.153-1.028-0.104-2.055-0.723-2.89
			c-0.619-0.835-1.526-1.38-2.554-1.532c-0.521-0.078-1.041-0.05-1.536,0.077C2833.237,1811.148,2832.778,1811.365,2832.366,1811.67
			z"/>
		<path style="fill:#3E8EDD;" d="M2687.868,1258.419l-49.762,0.485l0,0c-0.038-3.896,3.09-7.085,6.986-7.123l35.653-0.348
			C2684.641,1251.395,2687.83,1254.523,2687.868,1258.419L2687.868,1258.419z"/>
		<path style="fill:#606A97;" d="M2705.983,1394.819l-81.012,0.79c-7.049,0.069-12.818-5.59-12.887-12.638l-1.085-111.323
			c-0.069-7.048,5.59-12.818,12.638-12.887l81.012-0.79c7.049-0.069,12.818,5.59,12.887,12.638l1.085,111.322
			C2718.69,1388.981,2713.031,1394.75,2705.983,1394.819z"/>
		<path style="fill:#F69D85;" d="M2817.295,1326.336l-38.035-102.354c-4.928-13.261-19.672-20.016-32.933-15.088
			c-13.261,4.928-20.016,19.672-15.088,32.933l26.74,71.959l-99.496,17.414c-8.001,1.391-13.951,8.511-13.649,16.855
			c0.33,9.11,7.981,16.228,17.091,15.898l133.441-4.825c2.497-0.102,5.127-0.59,7.597-1.508
			C2815.559,1352.94,2821.976,1338.933,2817.295,1326.336z"/>
		<path style="fill:#F69D85;" d="M2679.624,1336.876c0,0-16.856-7.752-31.663-3.814s-19.735,8.84-22.33,14.807
			c-2.594,5.967,23.95,14.05,33.949,12.067C2669.581,1357.952,2680.245,1351.616,2679.624,1336.876z"/>
		<path style="fill:#F69D85;" d="M2670.066,1344.704c-7.716-5.551-16.632-9.606-25.892-11.76c-1.208-0.22-3.142-0.636-4.359-0.75
			c-2.867-0.009-6.465-1.232-5.979-4.76c0.781-5.179,7.864-3.274,11.55-3.486c11.489,0.886,22.868,4.123,33.011,9.612
			C2687.245,1338.868,2677.675,1351.699,2670.066,1344.704z"/>
		<path style="fill:#F69D85;" d="M2649.021,1346.746c-13.13-0.195-26.297-2.831-38.334-8.094c-4.048-1.627-1.918-8.029,2.272-6.939
			c3.272,0.787,6.57,1.411,9.914,1.8c8.257,0.871,16.698,0.827,24.888-0.533C2658.465,1330.262,2660.071,1347.308,2649.021,1346.746
			z"/>
		<path style="fill:#F69D85;" d="M2645.974,1354.904c-13.228,0.343-26.594-1.666-38.994-6.307c-4.133-1.409-2.344-7.921,1.903-7.05
			c3.708,0.682,7.454,1.199,11.224,1.363c8.034,0.391,16.187-0.091,24.061-1.712
			C2654.644,1338.202,2656.89,1354.947,2645.974,1354.904z"/>
		<path style="fill:#F69D85;" d="M2649.634,1358.981c-13.446,3.126-27.801,3.471-41.148-0.3c-4.414-1.083-2.905-7.965,1.533-7.156
			c0.802,0.074,2.609,0.225,3.37,0.294c10.803,0.449,21.755-1.744,31.712-5.898
			C2654.843,1340.697,2660.508,1356.867,2649.634,1358.981z"/>
		<path style="fill:#F69D85;" d="M2662.903,1362.202c-11.349,5.298-24.013,8.088-36.539,7.66c-3.955-0.109-8.452-0.814-12.296-1.717
			c-4.344-0.819-3.39-7.611,0.99-7.219c0.062,0.007,2.88,0.186,3.034,0.197c10.742,0.592,21.513-2.378,31.122-7.042
			c2.28-1.153,4.597-2.363,6.689-3.801C2664.341,1343.597,2672.822,1357.949,2662.903,1362.202z"/>
		<path style="fill:#AF5945;" d="M2623.046,1362.023c-0.351-0.07-0.59-0.404-0.538-0.762c0.054-0.371,0.397-0.628,0.768-0.575
			c0.092,0.013,9.262,1.301,18.181-0.455c0.366-0.072,0.724,0.166,0.797,0.535c0.072,0.368-0.167,0.725-0.535,0.797
			c-9.152,1.802-18.543,0.48-18.637,0.466C2623.07,1362.028,2623.058,1362.026,2623.046,1362.023z"/>
		<path style="fill:#AF5945;" d="M2617.702,1351.997c-0.018-0.004-0.028-0.006-0.03-0.006c-0.367-0.076-0.603-0.435-0.528-0.802
			c0.076-0.366,0.432-0.601,0.798-0.528c0.003,0,0.008,0.001,0.031,0.006c0.548,0.11,9.069,1.771,19.69,1.595
			c0.373-0.007,0.684,0.293,0.69,0.667c0.006,0.375-0.292,0.684-0.668,0.69C2626.929,1353.798,2618.286,1352.114,2617.702,1351.997z
			"/>
		<path style="fill:#AF5945;" d="M2626.168,1343.773c-1.476-0.295-2.436-0.519-2.554-0.547c-0.365-0.086-0.591-0.452-0.505-0.816
			c0.086-0.366,0.47-0.591,0.816-0.505c0.093,0.022,9.203,2.149,15.978,2.143c0.372,0,0.679,0.303,0.679,0.678
			c0,0.375-0.303,0.679-0.678,0.679C2635.138,1345.409,2629.409,1344.421,2626.168,1343.773z"/>
		<path style="fill:#FFB12A;" d="M2716.431,1175.071c0,0,51.537-0.939,77.548,54.246c26.011,55.185,36.3,101.391,26.959,122.785
			c-11.803,27.034-132.397,24.699-132.397,24.699s-13.764-20.395-6.483-55.355c0,0,39.418-8.507,66.052-10.61
			C2748.11,1310.836,2711.195,1216.712,2716.431,1175.071z"/>
		<path style="fill:#997243;" d="M2717.833,1315.379c-0.276-0.055-0.5-0.281-0.54-0.576c-0.05-0.371,0.212-0.713,0.583-0.762
			c9.595-1.278,25.366-3.274,29.26-3.765c-9.042-21.69-21.895-72.96-22.025-73.482c-0.091-0.364,0.13-0.732,0.494-0.823
			c0.364-0.091,0.732,0.131,0.823,0.494c0.132,0.528,13.292,53.025,22.306,74.105c0.084,0.196,0.071,0.42-0.035,0.605
			c-0.106,0.185-0.292,0.309-0.504,0.335c-0.191,0.024-19.19,2.419-30.139,3.877
			C2717.979,1315.396,2717.904,1315.393,2717.833,1315.379z"/>
		<path style="fill:#997243;" d="M2702.39,1377.48c-0.194-0.039-0.369-0.161-0.468-0.349c-12.554-23.816-6.677-58.268-6.616-58.613
			c0.064-0.369,0.416-0.616,0.786-0.551c0.362,0.073,0.615,0.417,0.55,0.786c-0.06,0.341-5.855,34.344,6.48,57.744
			c0.175,0.332,0.048,0.742-0.284,0.917C2702.696,1377.491,2702.537,1377.51,2702.39,1377.48z"/>
		<path style="fill:#997243;" d="M2683.676,1222.075c-3.72-0.743-6.848-2.767-9.311-6.027c-10.012-13.253-6.058-42.471-5.885-43.709
			c0.052-0.371,0.395-0.63,0.766-0.578c0.365,0.054,0.63,0.395,0.578,0.766c-0.042,0.297-4.048,29.901,5.625,42.704
			c2.442,3.233,5.592,5.139,9.356,5.658c21.195,2.94,36.917-45.137,37.073-45.623c0.115-0.357,0.491-0.556,0.854-0.438
			c0.357,0.115,0.553,0.497,0.438,0.854c-0.652,2.029-16.234,49.646-38.551,46.552
			C2684.301,1222.19,2683.986,1222.137,2683.676,1222.075z"/>
		<path style="fill:#AF5945;" d="M2683.464,1137.513c-3.274-0.654-5.718-3.242-5.696-6.306c0.005-0.798,0.177-1.575,0.511-2.31
			c1.114-2.482,3.801-4.07,6.844-4.045c2.608,0.017,5.026,1.274,6.313,3.276c0.62,0.957,0.946,2.061,0.94,3.188
			c0,0.001,0.001,0.001,0.001,0.002c-0.013,1.73-0.797,3.346-2.209,4.549c-1.384,1.179-3.212,1.82-5.146,1.806
			C2684.487,1137.668,2683.965,1137.613,2683.464,1137.513z M2686.413,1126.342c-0.422-0.084-0.857-0.129-1.3-0.133
			c-2.467-0.02-4.716,1.284-5.597,3.246c-0.255,0.563-0.386,1.155-0.39,1.761c-0.021,2.786,2.632,5.075,5.905,5.099
			c1.608,0.012,3.119-0.514,4.255-1.482c1.107-0.943,1.722-2.194,1.732-3.524c0.004-0.875-0.239-1.698-0.723-2.446
			C2689.467,1127.574,2688.043,1126.667,2686.413,1126.342z"/>
		<path style="fill:#305777;" d="M2664.379,1777.092c42.182,0,79.46-6.202,106.898-12.685c45.024-10.637,74.003-24.308,74.29-24.446
			c0.409-0.194,0.582-0.683,0.388-1.091c-0.194-0.41-0.684-0.583-1.092-0.387c-0.286,0.135-29.141,13.745-74.008,24.341
			c-41.393,9.774-105.269,18.911-174.51,6.923c-0.451-0.068-0.87,0.222-0.947,0.668c-0.077,0.446,0.222,0.87,0.668,0.947
			C2619.683,1775.45,2642.681,1777.092,2664.379,1777.092z"/>
	</g>
	<g id="_x33_">
		<path style="fill:#818496;" d="M1645.365,1302.408c0,0-5.751,23.86,13.115,49.174
			C1658.48,1351.582,1668.038,1324.367,1645.365,1302.408z"/>
		<path style="fill:#F69D85;" d="M1645.144,1323.619c0,0-18.166-4.401-32.042,2.358c-13.876,6.759-17.8,12.56-19.21,18.961
			s26.398,9.255,35.9,5.359C1639.295,1346.4,1648.612,1338.072,1645.144,1323.619z"/>
		<path style="fill:#F69D85;" d="M1638.812,1320.565c-10.839-3.136-22.324-4.128-33.532-2.788c-1.423,0.253-3.717,0.54-5.107,0.907
			c-2.862,0.307-6.411,1.888-5.545,5.391c0.68,3.227,4.111,3.352,6.74,2.931c11.052-0.583,22.281,1.97,32.329,6.513
			C1643.272,1339.159,1649.637,1323.174,1638.812,1320.565z"/>
		<path style="fill:#F69D85;" d="M1612.888,1325.934c-11.019,4.03-22.911,6.006-34.651,5.485c-4.388-0.257-5.193,6.498-0.904,7.299
			c4.77,1.083,9.714,1.768,14.603,2.061c8.611,0.418,17.336,0.095,25.802-1.694
			C1627.864,1336.523,1622.268,1321.304,1612.888,1325.934z"/>
		<path style="fill:#F69D85;" d="M1609.057,1331.65c-6.988,3.567-14.651,5.915-22.388,7.243c-4.349,1.812-14.168-1.636-14.693,4.725
			c0.169,6.425,18.007,4.32,22.745,4.453c7.116-0.561,14.285-1.673,21.053-4.056
			C1625.826,1340.106,1617.817,1325.338,1609.057,1331.65z"/>
		<path style="fill:#F69D85;" d="M1609.997,1337.283c-9.274,6.739-20.649,10.832-32.145,11.131
			c-4.386,0.098-4.645,6.884-0.315,7.339c5.004,0.743,10.143,0.872,15.192,0.376c9.318-1.053,18.677-3.552,26.84-8.289
			C1629.566,1341.634,1617.152,1327.935,1609.997,1337.283z"/>
		<path style="fill:#F69D85;" d="M1625.358,1339.067c-8.735,8.05-19.602,14.109-31.215,16.767
			c-4.386,2.155-15.466-1.213-15.788,4.901c0.661,8.225,25.37,2.95,30.845,1.32c9.357-2.878,18.369-7.154,26.149-13.152
			C1643.344,1342.271,1631.874,1330.958,1625.358,1339.067z"/>
		<path style="fill:#AF5945;" d="M1592.907,1339.069c2.739-0.481,5.621-1.171,8.184-2.161c0.352-0.136,0.527-0.532,0.391-0.884
			c-0.136-0.351-0.528-0.53-0.884-0.391c-7.633,2.946-18.611,3.17-18.721,3.173c-0.377,0.002-0.678,0.317-0.671,0.696
			c0.006,0.378,0.317,0.678,0.695,0.671C1582.212,1340.167,1587.25,1340.063,1592.907,1339.069z"/>
		<path style="fill:#AF5945;" d="M1591.612,1347.562c2.62-0.461,5.404-1.069,7.73-1.849c0.358-0.121,0.551-0.508,0.431-0.866
			c-0.12-0.357-0.508-0.546-0.866-0.431c-6.225,2.086-16.203,2.952-16.304,2.96c-0.382,0.024-0.655,0.363-0.623,0.739
			c0.032,0.375,0.363,0.655,0.739,0.623C1582.983,1348.717,1587.047,1348.365,1591.612,1347.562z"/>
		<path style="fill:#AF5945;" d="M1592.186,1356.672c0.007-0.001,0.013-0.002,0.02-0.003c0.301-0.062,7.434-1.537,12.399-3.849
			c0.342-0.159,0.49-0.566,0.331-0.908c-0.159-0.342-0.568-0.49-0.908-0.331c-4.818,2.243-12.024,3.733-12.096,3.748
			c-0.37,0.076-0.608,0.437-0.533,0.808C1591.474,1356.499,1591.824,1356.736,1592.186,1356.672z"/>
		<path style="fill:#F69D85;" d="M1638.336,1348.935l131.864-31.07c3.853-0.904,7.471-2.963,10.297-6.149l1.179-1.33
			l108.932-122.818c0.184-0.21,0.443-0.511,0.623-0.728c9.576-11.593,7.94-28.754-3.653-38.33
			c-11.593-9.576-28.754-7.94-38.33,3.653l-100.686,121.902l-119.501,44.037c-7.548,2.772-12.012,10.808-10.121,18.832
			C1620.982,1345.606,1629.667,1350.978,1638.336,1348.935z"/>
		<path style="fill:#F1F3F2;" d="M1868.145,1121.758c0,0,44.821,48.522,18.959,87.425
			c-25.862,38.903-78.225,104.945-107.767,118.249c-29.542,13.304-120.857,24.149-120.857,24.149s2.788-26.835-13.115-49.174
			l95.208-37.931c0,0,48.731-74.621,69.669-100.111C1835.37,1133.776,1868.145,1121.758,1868.145,1121.758z"/>
		<path style="fill:#818496;" d="M1653.332,1299.081c0.023,0.12,0.075,0.237,0.16,0.338c20.047,24.018,14.615,50.432,14.559,50.696
			c-0.088,0.406,0.169,0.798,0.569,0.885c0.402,0.087,0.798-0.167,0.885-0.569c0.058-0.272,5.656-27.374-14.87-51.966
			c-0.264-0.316-0.733-0.358-1.049-0.095C1653.372,1298.55,1653.284,1298.824,1653.332,1299.081z"/>
		<path style="fill:#818496;" d="M1664.566,1294.606c0.024,0.128,0.084,0.253,0.178,0.358
			c19.602,21.821,14.893,53.297,14.844,53.613c-0.064,0.41,0.213,0.787,0.619,0.852c0.406,0.064,0.787-0.213,0.851-0.618
			c0.052-0.323,4.863-32.502-15.207-54.841c-0.274-0.306-0.745-0.331-1.051-0.057
			C1664.599,1294.094,1664.519,1294.358,1664.566,1294.606z"/>
		<path style="fill:#F69D85;" d="M1825.068,1625.939l21.538,212.068c14.356,30.466,76.103,32.225,67.185,0.454l-27.047-224.414
			L1825.068,1625.939z"/>
		<path style="fill:#606A97;" d="M1917.431,1869.425c-0.365,1.375-0.972,2.644-1.775,3.759c-1.991,2.77-5.186,4.581-8.807,4.586
			l-82.789-0.034c-4.121,0.003-7.248-2.379-8.812-5.558c-0.483-0.965-0.816-2.01-0.985-3.087c-0.514-3.232,0.43-6.734,3.275-9.307
			l29.069-21.776c38.296,5.872,66.796-3.627,66.796-3.627l0.868,4.096c1.912,9.025,3.094,18.19,3.533,27.405l0,0
			C1917.862,1867.111,1917.732,1868.301,1917.431,1869.425z"/>
		<path style="fill:#404D7F;" d="M1917.431,1869.425c-1.262,4.788-5.504,8.337-10.582,8.344l-82.789-0.034
			c-5.375-0.001-9.068-4.045-9.797-8.645L1917.431,1869.425z"/>
		<path style="fill:#F69D85;" d="M1977.16,1625.939l41.384,212.068c14.355,30.466,76.103,32.225,67.185,0.454l-46.892-224.414
			L1977.16,1625.939z"/>
		<path style="fill:#606A97;" d="M2089.368,1869.425c-0.365,1.375-0.972,2.644-1.775,3.759c-1.991,2.77-5.186,4.581-8.806,4.586
			l-82.789-0.034c-4.121,0.003-7.248-2.379-8.812-5.558c-0.483-0.965-0.816-2.01-0.985-3.087c-0.514-3.232,0.43-6.734,3.274-9.307
			l29.069-21.776c38.296,5.872,66.796-3.627,66.796-3.627l0.868,4.096c1.912,9.025,3.094,18.19,3.533,27.405l0,0
			C2089.799,1867.111,2089.67,1868.301,2089.368,1869.425z"/>
		<path style="fill:#404D7F;" d="M2089.368,1869.425c-1.261,4.788-5.504,8.337-10.582,8.344l-82.789-0.034
			c-5.375-0.001-9.068-4.045-9.797-8.645L2089.368,1869.425z"/>
		<path style="fill:#60BF60;" d="M1928.997,1415.248l-10.429,406.301c0,0-38.293,14.055-89.29,3.345l-31.027-415.979
			L1928.997,1415.248z"/>
		<path style="fill:#60BF60;" d="M2013.203,1419.326c0,0,69.603,311.166,82.779,400.092c0,0-38.292,14.055-89.289,3.345
			l-118.706-409.502L2013.203,1419.326z"/>
		
			<rect x="1872.18" y="1084.264" transform="matrix(0.0484 -0.9988 0.9988 0.0484 708.9155 2954.3977)" style="fill:#F69D85;" width="65.507" height="41.789"/>
		<path style="fill:#D1836B;" d="M1918.421,1105.391c-18.002,8.052-34.7,5.838-34.7,5.838l0.614-12.674L1918.421,1105.391z"/>
		<path style="fill:#2A3047;" d="M1864.335,1038.014c0,0-5.766-11.497-1.96-23.376l13.194,3.103
			C1875.569,1017.741,1867.67,1026.828,1864.335,1038.014z"/>
		<path style="fill:#F69D85;" d="M1897.936,1107.016L1897.936,1107.016c-23.972-3.781-40.34-26.278-36.559-50.25l3.553-22.531
			c3.781-23.971,26.278-40.339,50.25-36.559v0c23.971,3.781,40.339,26.278,36.559,50.25l-3.553,22.53
			C1944.405,1094.429,1921.908,1110.797,1897.936,1107.016z"/>
		<path style="fill:#F69D85;" d="M1964.548,1064.133c-1.004,6.368-6.98,10.716-13.348,9.712c-6.368-1.004-10.716-6.981-9.711-13.348
			s6.98-10.716,13.348-9.711C1961.204,1051.789,1965.552,1057.766,1964.548,1064.133z"/>
		<path style="fill:#F69D85;" d="M1874.046,1051.363c-1.004,6.368-6.981,10.716-13.348,9.711s-10.716-6.98-9.711-13.348
			c1.004-6.368,6.98-10.716,13.348-9.712C1870.702,1039.019,1875.05,1044.995,1874.046,1051.363z"/>
		<path style="fill:#F69D85;" d="M1893.522,1366.945l-2.533-0.123c-38.553-1.867-68.292-34.634-66.425-73.186l5.177-106.885
			c1.867-38.553,39.393-66.549,73.186-66.425l2.533,0.123c32.192,1.559,68.292,34.634,66.425,73.187l-5.177,106.885
			C1964.842,1339.073,1932.075,1368.812,1893.522,1366.945z"/>
		<path style="fill:#30313C;" d="M1913.664,1049.547c-0.509,3.238,0.416,6.073,2.067,6.332c1.651,0.26,3.401-2.154,3.91-5.392
			c0.509-3.238-0.416-6.073-2.067-6.332C1915.924,1043.895,1914.173,1046.31,1913.664,1049.547z"/>
		<path style="fill:#30313C;" d="M1887.456,1045.426c-0.509,3.238,0.416,6.073,2.067,6.332c1.651,0.26,3.401-2.155,3.91-5.392
			c0.509-3.238-0.416-6.073-2.067-6.332C1889.716,1039.774,1887.965,1042.189,1887.456,1045.426z"/>
		<path style="fill:#2A3047;" d="M1844.631,1002.297c9.732-14.689,25.284-8.276,36.368-17.667c8.16-6.914,32.962-16.293,48.73-8.585
			c12.47,6.096,16.669,16.824,17.897,25.398c6.267,3.364,12.851,9.58,14.264,21.013c1.667,13.487-10.6,28.313-10.6,28.313
			s-12.854-6.067-17.495-20.548c-2.459-7.673-3.292-13.682-3.266-18.345c-6.726-0.782-14.191-1.327-19.898-0.869
			c-20.283,1.63-21.774,14.899-42.361,17.751C1844.434,1032.061,1837.884,1012.482,1844.631,1002.297z"/>
		<path style="fill:#D1836B;" d="M1930.566,1064.067c0.007,2.346-2.072,4.253-4.642,4.26s-4.66-1.888-4.667-4.234
			c-0.007-2.345,2.071-4.253,4.642-4.26C1928.47,1059.826,1930.559,1061.722,1930.566,1064.067z"/>
		<path style="fill:#D1836B;" d="M1881.446,1058.275c0.007,2.345-2.071,4.253-4.642,4.26c-2.57,0.007-4.66-1.888-4.667-4.234
			c-0.007-2.345,2.072-4.253,4.642-4.26C1879.35,1054.034,1881.439,1055.929,1881.446,1058.275z"/>
		<path style="fill:#AF5945;" d="M1861.764,1056.396c0.332-0.001,0.623-0.244,0.673-0.582c0.665-4.426-2.175-5.705-4.055-6.551
			c-0.841-0.379-1.636-0.737-1.812-1.208c-0.098-0.261-0.034-0.639,0.189-1.124c1.756-3.809,6.615-3.356,6.823-3.337
			c0.387,0.041,0.711-0.235,0.75-0.609c0.039-0.375-0.232-0.711-0.607-0.75c-0.244-0.027-6.039-0.581-8.208,4.125
			c-0.387,0.84-0.461,1.552-0.228,2.176c0.376,1.005,1.423,1.477,2.532,1.976c1.856,0.836,3.775,1.7,3.264,5.101
			c-0.057,0.374,0.201,0.722,0.574,0.778C1861.695,1056.393,1861.729,1056.396,1861.764,1056.396z"/>
		<path style="fill:#AF5945;" d="M1952.802,1069.979c0.018,0,0.035-0.001,0.053-0.002c0.376-0.03,0.657-0.36,0.627-0.736
			c-0.275-3.428,1.699-4.158,3.607-4.864c1.14-0.422,2.217-0.82,2.661-1.797c0.276-0.607,0.25-1.322-0.078-2.187
			c-1.84-4.846-7.66-4.686-7.904-4.68c-0.377,0.014-0.671,0.33-0.658,0.707c0.013,0.377,0.342,0.667,0.706,0.659
			c0.206-0.007,5.088-0.123,6.577,3.799c0.19,0.499,0.227,0.881,0.112,1.135c-0.208,0.458-1.026,0.76-1.891,1.08
			c-1.933,0.715-4.854,1.795-4.496,6.256C1952.148,1069.709,1952.449,1069.98,1952.802,1069.979z"/>
		<path style="fill:#F1F3F2;" d="M1883.189,1122.169c0,0-47.011,8.873-65.42,64.046c-20.655,61.908-30.915,162.597-19.934,231.302
			c1.703,10.655,45.651,18.214,80.19,19.887c44.644,2.162,118.501-5.903,135.179-18.077
			c21.162-15.448-16.972-104.319-21.058-151.076c-5.577-63.818,0.105-118.533-67.216-144.056
			C1924.929,1124.194,1890.987,1145.63,1883.189,1122.169z"/>
		<path style="fill:#AF5945;" d="M1902.41,1074.6c2.457-0.007,5.165-0.374,8.011-1.343c0.357-0.122,0.549-0.51,0.427-0.868
			c-0.121-0.358-0.509-0.549-0.867-0.427c-10.376,3.535-19.026-1.533-19.112-1.585c-0.323-0.194-0.743-0.089-0.938,0.235
			c-0.194,0.324-0.089,0.744,0.235,0.938C1890.443,1071.716,1895.403,1074.62,1902.41,1074.6z"/>
		<path style="fill:#AF5945;" d="M1900.355,1066.579c0.264-0.001,0.515-0.155,0.626-0.413c0.15-0.346-0.01-0.749-0.356-0.899
			c-1.522-0.659-4.542-2.448-4.172-3.776c0.516-1.85,4.903-9.783,6.55-12.682c0.187-0.328,0.071-0.746-0.257-0.932
			c-0.328-0.187-0.746-0.071-0.932,0.257c-0.245,0.432-6.012,10.601-6.679,12.991c-0.788,2.829,4.358,5.143,4.947,5.398
			C1900.172,1066.561,1900.265,1066.579,1900.355,1066.579z"/>
		<path style="fill:#AF5945;" d="M1884.147,1036.456c0.158,0,0.318-0.034,0.471-0.103c6.359-2.89,13.91-0.046,13.985-0.017
			c0.591,0.227,1.254-0.066,1.483-0.657c0.228-0.59-0.065-1.254-0.655-1.483c-0.345-0.132-8.51-3.227-15.763,0.068
			c-0.577,0.262-0.832,0.942-0.57,1.519C1883.292,1036.207,1883.71,1036.457,1884.147,1036.456z"/>
		<path style="fill:#AF5945;" d="M1925.848,1042.563c0.333-0.001,0.664-0.147,0.89-0.426c0.398-0.492,0.323-1.214-0.169-1.612
			c-0.28-0.226-6.923-5.545-15.688-4.949c-0.632,0.043-1.11,0.59-1.067,1.222c0.043,0.633,0.603,1.109,1.222,1.067
			c7.818-0.52,14.028,4.394,14.09,4.444C1925.338,1042.481,1925.594,1042.564,1925.848,1042.563z"/>
		<path style="fill:#818496;" d="M2054.254,1408.523c0,0,22.377,10.083,50.754-3.754
			C2105.008,1404.769,2080.043,1390.323,2054.254,1408.523z"/>
		<path style="fill:#F69D85;" d="M2075.055,1412.678c0,0-7.698,17.032-3.634,31.922c4.064,14.89,9.035,19.823,15.063,22.397
			c6.028,2.574,13.997-24.219,11.933-34.28C2096.354,1422.658,2089.901,1411.956,2075.055,1412.678z"/>
		<path style="fill:#F69D85;" d="M2070.878,1418.333c-5.094,10.068-8.203,21.169-8.967,32.43c-0.016,1.445-0.16,3.753-0.057,5.187
			c-0.23,2.869,0.665,6.65,4.268,6.449c3.297-0.069,4.057-3.417,4.132-6.079c1.48-10.968,6.074-21.527,12.404-30.557
			C2089.978,1417.405,2075.452,1408.181,2070.878,1418.333z"/>
		<path style="fill:#F69D85;" d="M2071.339,1444.804c1.913,11.576,1.646,23.628-1.046,35.066c-1.067,4.264,5.42,6.309,7.004,2.244
			c1.95-4.486,3.541-9.216,4.738-13.966c2.01-8.384,3.313-17.017,3.128-25.668
			C2084.525,1432.055,2068.532,1434.727,2071.339,1444.804z"/>
		<path style="fill:#F69D85;" d="M2076.243,1449.629c2.207,7.529,3.09,15.495,2.958,23.344c0.973,4.61-4.239,13.618,1.913,15.315
			c6.344,1.027,7.59-16.891,8.6-21.522c0.771-7.096,1.009-14.347-0.075-21.44C2087.667,1434.723,2071.669,1439.85,2076.243,1449.629
			z"/>
		<path style="fill:#F69D85;" d="M2081.953,1449.752c4.899,10.364,6.808,22.301,4.967,33.654c-0.718,4.328,5.901,5.843,7.153,1.672
			c1.659-4.779,2.74-9.804,3.192-14.858c0.695-9.351-0.021-19.012-3.16-27.912
			C2089.864,1431.332,2074.097,1440.986,2081.953,1449.752z"/>
		<path style="fill:#F69D85;" d="M2086.56,1434.99c6.287,10.078,10.222,21.882,10.677,33.786c1.302,4.71-4.064,14.972,1.883,16.424
			c8.204,0.878,7.611-24.381,7.026-30.063c-1.09-9.729-3.617-19.378-8.067-28.137
			C2093.048,1417.912,2079.802,1427.081,2086.56,1434.99z"/>
		<path style="fill:#AF5945;" d="M2080.534,1466.876c0.036-2.78-0.107-5.741-0.603-8.443c-0.068-0.371-0.425-0.617-0.796-0.549
			c-0.37,0.068-0.619,0.42-0.549,0.796c1.478,8.047-0.341,18.876-0.36,18.984c-0.068,0.371,0.186,0.725,0.559,0.788
			c0.372,0.064,0.725-0.186,0.788-0.559C2079.626,1477.59,2080.46,1472.62,2080.534,1466.876z"/>
		<path style="fill:#AF5945;" d="M2088.639,1469.726c0.034-2.659-0.047-5.508-0.381-7.939c-0.052-0.374-0.397-0.636-0.771-0.585
			c-0.374,0.052-0.631,0.398-0.584,0.77c0.894,6.504-0.109,16.47-0.119,16.571c-0.047,0.38,0.235,0.711,0.611,0.75
			c0.375,0.038,0.711-0.235,0.75-0.611C2088.171,1478.42,2088.58,1474.361,2088.639,1469.726z"/>
		<path style="fill:#AF5945;" d="M2097.697,1470.854c0-0.007,0-0.013,0-0.02c-0.005-0.307-0.129-7.59-1.479-12.898
			c-0.093-0.365-0.465-0.587-0.831-0.494s-0.587,0.467-0.494,0.831c1.309,5.15,1.435,12.508,1.436,12.582
			c0.006,0.377,0.317,0.678,0.695,0.673C2097.395,1471.522,2097.692,1471.222,2097.697,1470.854z"/>
		<path style="fill:#F69D85;" d="M2098.667,1424.07l-6.038-135.34c-0.172-3.954-1.524-7.891-4.129-11.26l-1.087-1.406
			l-100.449-129.848c-0.172-0.22-0.419-0.53-0.599-0.747c-9.613-11.562-26.779-13.142-38.341-3.529
			c-11.563,9.613-13.143,26.779-3.53,38.342l101.08,121.576l21.075,125.601c1.322,7.932,8.389,13.81,16.625,13.443
			C2092.172,1440.504,2099.063,1432.969,2098.667,1424.07z"/>
		<path style="fill:#F1F3F2;" d="M1924.929,1124.194c0,0,46.071-5.194,82.622,29.481c33.891,32.151,88.59,96.356,96.175,127.855
			c7.585,31.499,1.282,123.239,1.282,123.239s-25.85-7.724-50.754,3.754l-19.588-100.597c0,0-79.673-83.196-91.924-113.824
			C1930.491,1163.474,1924.929,1124.194,1924.929,1124.194z"/>
		<path style="fill:#30313C;" d="M1883.72,1114.533l-15.846,7.005l13.571,27.661l12.723-10.315l6.19,13.355L1937,1124l-11.661-8.238
			c0,0-14.454,13.001-29.601,11.143C1886.015,1125.712,1883.72,1114.533,1883.72,1114.533z"/>
		<path style="fill:#818496;" d="M1991.514,1261.19c0.175,0,0.349-0.061,0.49-0.184c0.309-0.271,0.34-0.741,0.07-1.05
			c-0.331-0.378-33.296-38.108-47.143-62.793c-0.202-0.358-0.655-0.486-1.014-0.285c-0.359,0.201-0.486,0.655-0.285,1.013
			c13.924,24.822,46.989,62.667,47.322,63.046C1991.101,1261.104,1991.308,1261.19,1991.514,1261.19z"/>
		<path style="fill:#818496;" d="M2052.465,1400.075c0.122,0,0.247-0.03,0.361-0.094c27.323-15.237,52.27-4.994,52.518-4.89
			c0.383,0.162,0.816-0.018,0.976-0.395c0.16-0.379-0.016-0.815-0.395-0.975c-0.257-0.108-25.847-10.642-53.824,4.959
			c-0.359,0.201-0.488,0.654-0.288,1.013C2051.951,1399.938,2052.204,1400.075,2052.465,1400.075z"/>
		<path style="fill:#339E33;" d="M1924.929,1541.446c0.068,0,0.138-0.009,0.207-0.029c0.394-0.115,0.622-0.527,0.508-0.922
			l-20.052-69.173c-0.115-0.394-0.521-0.624-0.922-0.507c-0.395,0.114-0.622,0.527-0.508,0.922l20.052,69.173
			C1924.309,1541.235,1924.607,1541.446,1924.929,1541.446z"/>
		<path style="fill:#339E33;" d="M2070.235,1806.204c0.05,0,0.101-0.005,0.152-0.016c0.402-0.083,0.661-0.477,0.577-0.88
			l-78.251-378.034c-0.083-0.404-0.475-0.664-0.88-0.578c-0.402,0.083-0.661,0.477-0.578,0.879l78.251,378.035
			C2069.58,1805.963,2069.89,1806.204,2070.235,1806.204z"/>
		<path style="fill:#818496;" d="M1896.089,1416.407c17.083,0,33.137-1.071,47.051-2.521c43.724-4.559,76.285-13.746,76.608-13.839
			c0.395-0.112,0.625-0.524,0.513-0.92c-0.114-0.394-0.524-0.625-0.92-0.512c-0.324,0.092-32.782,9.249-76.384,13.792
			c-40.205,4.19-98.38,5.201-147.197-13.77c-0.381-0.147-0.814,0.041-0.963,0.425c-0.148,0.383,0.041,0.814,0.424,0.963
			C1827.404,1412.531,1863.6,1416.407,1896.089,1416.407z"/>
		<path style="fill:#818496;" d="M1897.404,1395.748c17.083,0,32.913-0.992,46.521-2.335c42.766-4.221,73.398-12.729,73.703-12.815
			c0.395-0.111,0.626-0.522,0.514-0.918c-0.11-0.395-0.515-0.629-0.917-0.516c-0.303,0.085-30.833,8.563-73.477,12.77
			c-39.332,3.878-97.307,4.815-150.146-12.759c-0.389-0.131-0.811,0.081-0.941,0.471c-0.13,0.39,0.081,0.812,0.472,0.941
			C1827.929,1392.162,1864.925,1395.748,1897.404,1395.748z"/>
		<path style="fill:#818496;" d="M2050.154,1388.206c0.131,0,0.264-0.035,0.385-0.108c25.082-15.208,55.136-4.735,55.437-4.627
			c0.391,0.139,0.813-0.063,0.952-0.45c0.139-0.387-0.063-0.813-0.449-0.951c-0.307-0.111-31.033-10.815-56.711,4.756
			c-0.352,0.213-0.464,0.671-0.251,1.022C2049.657,1388.078,2049.902,1388.206,2050.154,1388.206z"/>
		<path style="fill:#339E33;" d="M1865.611,1810.464c-23.221,0-37.686-3.408-37.92-3.465c-0.438-0.106-0.708-0.548-0.601-0.987
			c0.106-0.438,0.548-0.709,0.986-0.601c0.38,0.091,38.55,9.071,90.771-2.434c0.431-0.097,0.876,0.18,0.974,0.623
			c0.097,0.441-0.182,0.877-0.623,0.974C1898.731,1809.081,1880.396,1810.464,1865.611,1810.464z"/>
		<path style="fill:#339E33;" d="M2034.177,1809c-18.582,0-31.965-1.432-32.221-1.46c-0.449-0.049-0.773-0.453-0.723-0.901
			c0.049-0.448,0.47-0.776,0.902-0.723c0.493,0.053,49.85,5.327,90.876-4.57c0.429-0.103,0.88,0.164,0.987,0.603
			c0.105,0.439-0.165,0.88-0.604,0.987C2073.44,1807.75,2051.539,1809,2034.177,1809z"/>
		<path style="fill:#818496;" d="M1794.748,1318.394c-0.017,0-0.032,0-0.049-0.001c-0.452-0.026-0.797-0.414-0.771-0.866
			c3.779-64.688,26.611-117.996,26.842-118.527c0.181-0.415,0.665-0.603,1.078-0.426c0.415,0.181,0.605,0.663,0.426,1.078
			c-0.229,0.528-22.948,53.584-26.709,117.971C1795.54,1318.058,1795.179,1318.394,1794.748,1318.394z"/>
	</g>
	<g id="_x32_">
		<path style="fill:#2A3047;" d="M1469.323,1879.818c-2.513,0-4.55-2.037-4.55-4.55v-546.235c0-2.513,2.037-4.55,4.55-4.55
			c2.513,0,4.55,2.037,4.55,4.55v546.235C1473.873,1877.781,1471.836,1879.818,1469.323,1879.818z"/>
		<polygon style="fill:#F1F3F2;" points="1560.31,1636.803 1233.208,1636.803 1212.344,1541.718 1142.218,1222.114 
			1469.32,1222.114 1539.446,1541.718 		"/>
		<path style="fill:#2A3047;" d="M1613.407,1879.818c-2.089,0-3.97-1.447-4.438-3.57l-144.088-653.151
			c-0.542-2.454,1.009-4.882,3.462-5.423c2.456-0.538,4.882,1.009,5.423,3.462l144.088,653.151c0.542,2.454-1.009,4.882-3.462,5.423
			C1614.061,1879.783,1613.732,1879.818,1613.407,1879.818z"/>
		<path style="fill:#2A3047;" d="M1286.306,1879.818c-2.088,0-3.97-1.447-4.438-3.57l-135.097-612.39v612.657
			c0,2.513-2.037,4.55-4.549,4.55c-2.513,0-4.55-2.037-4.55-4.55v-654.399c0-2.322,1.749-4.271,4.057-4.522
			c2.312-0.257,4.436,1.275,4.936,3.542l144.089,653.151c0.541,2.454-1.009,4.882-3.463,5.423
			C1286.961,1879.783,1286.631,1879.818,1286.306,1879.818z"/>
		<path style="fill:#2A3047;" d="M1560.313,1641.352c-0.001,0-0.003,0-0.006,0l-418.091-0.504c-2.512-0.003-4.547-2.043-4.544-4.556
			c0.003-2.51,2.04-4.544,4.55-4.544c0.002,0,0.004,0,0.006,0l418.091,0.504c2.513,0.003,4.547,2.043,4.544,4.556
			C1564.86,1639.318,1562.823,1641.352,1560.313,1641.352z"/>
		<path style="fill:#3E8EDD;" d="M1461.805,1493.581c0,50.384-40.845,91.23-91.235,91.231
			c-50.444,0.001-91.217-40.758-91.233-91.202c-0.015-48.613,37.995-88.354,85.915-91.108c2.889-0.166,5.316,2.158,5.316,5.052
			v77.586c0,3.752,4.061,6.097,7.311,4.221l67.214-38.796c2.508-1.447,5.733-0.506,7.034,2.081
			C1458.322,1464.959,1461.805,1478.861,1461.805,1493.581z"/>
		<path style="fill:#FF593A;" d="M1451.868,1438.487l-67.468,38.942c-3.222,1.86-7.25-0.466-7.25-4.186v-77.891
			c0-2.761,2.311-4.981,5.068-4.83c29.839,1.633,55.855,17.602,71.285,41.135C1455.025,1433.975,1454.271,1437.1,1451.868,1438.487z
			"/>
		<path style="fill:#3E8EDD;" d="M1446.249,1318.408h-235.98c-1.508,0-2.731-1.223-2.731-2.731s1.223-2.731,2.731-2.731h235.98
			c1.508,0,2.731,1.223,2.731,2.731S1447.757,1318.408,1446.249,1318.408z"/>
		<path style="fill:#3E8EDD;" d="M1453.896,1347.906h-61.354c-1.508,0-2.731-1.223-2.731-2.731s1.223-2.731,2.731-2.731h61.354
			c1.508,0,2.731,1.223,2.731,2.731S1455.404,1347.906,1453.896,1347.906z"/>
		<path style="fill:#3E8EDD;" d="M1369.111,1347.906h-151.195c-1.508,0-2.731-1.223-2.731-2.731s1.223-2.731,2.731-2.731h151.195
			c1.508,0,2.731,1.223,2.731,2.731S1370.619,1347.906,1369.111,1347.906z"/>
		<path style="fill:#3E8EDD;" d="M1440.786,1291.096h-167.257c-1.508,0-2.731-1.223-2.731-2.731s1.223-2.731,2.731-2.731h167.257
			c1.508,0,2.731,1.223,2.731,2.731S1442.294,1291.096,1440.786,1291.096z"/>
		<path style="fill:#3E8EDD;" d="M1250.47,1291.096h-45.664c-1.508,0-2.731-1.223-2.731-2.731s1.223-2.731,2.731-2.731h45.664
			c1.508,0,2.731,1.223,2.731,2.731S1251.978,1291.096,1250.47,1291.096z"/>
	</g>
	<path id="_x31_" style="fill:#30313C;" d="M3150.005,1882.139H171.845c-1.207,0-2.185-0.978-2.185-2.185s0.978-2.185,2.185-2.185
		h2978.16c1.207,0,2.185,0.978,2.185,2.185S3151.212,1882.139,3150.005,1882.139z"/>
</g>
</svg>
