<svg width="85.000000" height="85.000000" viewBox="0 0 85 85" fill="none" xmlns="http://www.w3.org/2000/svg" xmlns:xlink="http://www.w3.org/1999/xlink">
	<desc>
			Created with Pixso.
	</desc>
	<defs/>
	<path id="Vector 12" d="M10 0L75 0C80.52 0 85 4.47 85 10L85 75C85 80.52 80.52 85 75 85L10 85C4.47 85 0 80.52 0 75L0 10C0 4.47 4.47 0 10 0Z" fill="#FFFFFF" fill-opacity="1.000000" fill-rule="evenodd"/>
	<path id="Vector 12" d="M38 21.5C38 16.8 41.8 13 46.5 13C51.19 13 55 16.8 55 21.5C55 26.19 51.19 30 46.5 30C41.8 30 38 26.19 38 21.5Z" fill="#2472F5" fill-opacity="1.000000" fill-rule="evenodd"/>
	<path id="Vector 12" d="M39 38L69 38L69 52.24L52.46 52.24L52.46 73L38 73L38 39C38 38.44 38.44 38 39 38Z" fill="#FFCF00" fill-opacity="1.000000" fill-rule="evenodd"/>
	<path id="Vector 12" d="M15 38L29 38L29 55L15 55L15 38Z" fill="#2472F5" fill-opacity="1.000000" fill-rule="evenodd"/>
</svg>
