<svg width="142" height="49" viewBox="0 0 142 49" fill="none" xmlns="http://www.w3.org/2000/svg">
<path d="M4.96434 15.8563C5.80624 14.7438 6.95297 13.8071 8.40453 13.0459C9.85609 12.2848 11.4964 11.9042 13.3253 11.9042C15.4156 11.9042 17.3171 12.4311 19.03 13.485C20.7718 14.5096 22.1363 15.9587 23.1234 17.8323C24.1104 19.7059 24.6039 21.8576 24.6039 24.2874C24.6039 26.7172 24.1104 28.8982 23.1234 30.8303C22.1363 32.7332 20.7718 34.2262 19.03 35.3094C17.3171 36.3633 15.4156 36.8902 13.3253 36.8902C11.4964 36.8902 9.87061 36.5243 8.44808 35.7924C7.02555 35.0313 5.8643 34.0945 4.96434 32.982V48H0V12.2994H4.96434V15.8563ZM19.5525 24.2874C19.5525 22.6188 19.2041 21.1843 18.5074 19.984C17.8397 18.7545 16.9397 17.8323 15.8075 17.2176C14.7043 16.5735 13.514 16.2515 12.2367 16.2515C10.9883 16.2515 9.79803 16.5735 8.66581 17.2176C7.56263 17.8616 6.66266 18.7984 5.96591 20.0279C5.29819 21.2575 4.96434 22.7066 4.96434 24.3752C4.96434 26.0439 5.29819 27.5077 5.96591 28.7665C6.66266 29.996 7.56263 30.9328 8.66581 31.5768C9.79803 32.2209 10.9883 32.5429 12.2367 32.5429C13.514 32.5429 14.7043 32.2209 15.8075 31.5768C16.9397 30.9035 17.8397 29.9375 18.5074 28.6786C19.2041 27.4198 19.5525 25.9561 19.5525 24.2874Z" fill="white"/>
<path d="M51.5043 23.8044C51.5043 24.7119 51.4462 25.5316 51.3301 26.2635H32.9969C33.1421 28.1956 33.8533 29.7472 35.1307 30.9182C36.4081 32.0892 37.9758 32.6747 39.8338 32.6747C42.5046 32.6747 44.3917 31.5476 45.4948 29.2934H50.8511C50.1253 31.5183 48.8044 33.348 46.8883 34.7824C45.0013 36.1876 42.6498 36.8902 39.8338 36.8902C37.5403 36.8902 35.4791 36.3779 33.6501 35.3533C31.8502 34.2994 30.4276 32.8357 29.3825 30.9621C28.3664 29.0592 27.8584 26.8636 27.8584 24.3752C27.8584 21.8869 28.3519 19.7059 29.339 17.8323C30.3551 15.9295 31.7631 14.4657 33.563 13.4411C35.392 12.4165 37.4822 11.9042 39.8338 11.9042C42.0982 11.9042 44.1159 12.4019 45.8868 13.3972C47.6577 14.3925 49.0366 15.7977 50.0237 17.6128C51.0108 19.3985 51.5043 21.4624 51.5043 23.8044ZM46.3222 22.2236C46.2932 20.3792 45.64 18.9009 44.3626 17.7884C43.0853 16.676 41.5031 16.1198 39.616 16.1198C37.9032 16.1198 36.4371 16.676 35.2178 17.7884C33.9985 18.8716 33.2727 20.35 33.0405 22.2236H46.3222Z" fill="white"/>
<path d="M83.978 15.8563C84.8199 14.7438 85.9666 13.8071 87.4182 13.0459C88.8697 12.2848 90.51 11.9042 92.339 11.9042C94.4292 11.9042 96.3307 12.4311 98.0436 13.485C99.7855 14.5096 101.15 15.9587 102.137 17.8323C103.124 19.7059 103.618 21.8576 103.618 24.2874C103.618 26.7172 103.124 28.8982 102.137 30.8303C101.15 32.7332 99.7855 34.2262 98.0436 35.3094C96.3307 36.3633 94.4292 36.8902 92.339 36.8902C90.51 36.8902 88.8842 36.5243 87.4617 35.7924C86.0392 35.0313 84.8779 34.0945 83.978 32.982V48H79.0136V12.2994H83.978V15.8563ZM98.5661 24.2874C98.5661 22.6188 98.2178 21.1843 97.521 19.984C96.8533 18.7545 95.9533 17.8323 94.8211 17.2176C93.7179 16.5735 92.5277 16.2515 91.2503 16.2515C90.0019 16.2515 88.8117 16.5735 87.6794 17.2176C86.5763 17.8616 85.6763 18.7984 84.9795 20.0279C84.3118 21.2575 83.978 22.7066 83.978 24.3752C83.978 26.0439 84.3118 27.5077 84.9795 28.7665C85.6763 29.996 86.5763 30.9328 87.6794 31.5768C88.8117 32.2209 90.0019 32.5429 91.2503 32.5429C92.5277 32.5429 93.7179 32.2209 94.8211 31.5768C95.9533 30.9035 96.8533 29.9375 97.521 28.6786C98.2178 27.4198 98.5661 25.9561 98.5661 24.2874Z" fill="white"/>
<path d="M113.491 4V36.495H108.527V4H113.491Z" fill="white"/>
<path d="M142 23.8044C142 24.7119 141.942 25.5316 141.826 26.2635H123.493C123.638 28.1956 124.349 29.7472 125.626 30.9182C126.904 32.0892 128.471 32.6747 130.329 32.6747C133 32.6747 134.887 31.5476 135.991 29.2934H141.347C140.621 31.5183 139.3 33.348 137.384 34.7824C135.497 36.1876 133.145 36.8902 130.329 36.8902C128.036 36.8902 125.975 36.3779 124.146 35.3533C122.346 34.2994 120.923 32.8357 119.878 30.9621C118.862 29.0592 118.354 26.8636 118.354 24.3752C118.354 21.8869 118.848 19.7059 119.835 17.8323C120.851 15.9295 122.259 14.4657 124.059 13.4411C125.888 12.4165 127.978 11.9042 130.329 11.9042C132.594 11.9042 134.612 12.4019 136.382 13.3972C138.153 14.3925 139.532 15.7977 140.519 17.6128C141.506 19.3985 142 21.4624 142 23.8044ZM136.818 22.2236C136.789 20.3792 136.136 18.9009 134.858 17.7884C133.581 16.676 131.999 16.1198 130.112 16.1198C128.399 16.1198 126.933 16.676 125.713 17.7884C124.494 18.8716 123.768 20.35 123.536 22.2236H136.818Z" fill="white"/>
<path fill-rule="evenodd" clip-rule="evenodd" d="M65.5 32.2727C70.2446 32.2727 74.0909 28.5689 74.0909 24C74.0909 19.4311 70.2446 15.7273 65.5 15.7273C60.7554 15.7273 56.9091 19.4311 56.9091 24C56.9091 28.5689 60.7554 32.2727 65.5 32.2727ZM65.5 37C72.9558 37 79 31.1797 79 24C79 16.8203 72.9558 11 65.5 11C58.0442 11 52 16.8203 52 24C52 31.1797 58.0442 37 65.5 37Z" fill="white"/>
<mask id="path-3-inside-1_252_14" fill="white">
<path d="M77.3053 45.669C76.2527 43.3109 74.5244 41.318 72.3391 39.9421C70.1538 38.5663 67.6096 37.8694 65.0282 37.9395C62.4468 38.0096 59.9442 38.8437 57.8368 40.3361C55.7294 41.8286 54.1119 43.9124 53.1888 46.3241L57.9719 48.1548C58.5329 46.6891 59.5159 45.4226 60.7967 44.5156C62.0775 43.6086 63.5984 43.1017 65.1673 43.0591C66.7361 43.0165 68.2824 43.44 69.6105 44.2762C70.9386 45.1123 71.989 46.3236 72.6287 47.7567L77.3053 45.669Z"/>
</mask>
<path d="M77.3053 45.669L79.7511 51.1479L85.23 48.7021L82.7842 43.2232L77.3053 45.669ZM53.1888 46.3241L47.5852 44.1794L45.4405 49.783L51.0441 51.9277L53.1888 46.3241ZM57.9719 48.1548L55.8272 53.7584L61.4308 55.9031L63.5755 50.2996L57.9719 48.1548ZM72.6287 47.7567L67.1498 50.2025L69.5956 55.6813L75.0745 53.2356L72.6287 47.7567ZM82.7842 43.2232C81.2479 39.7815 78.7254 36.8727 75.5359 34.8646L69.1424 45.0196C70.3235 45.7632 71.2576 46.8404 71.8265 48.1148L82.7842 43.2232ZM75.5359 34.8646C72.3463 32.8566 68.6329 31.8394 64.8653 31.9417L65.1911 43.9373C66.5863 43.8994 67.9613 44.2761 69.1424 45.0196L75.5359 34.8646ZM64.8653 31.9417C61.0976 32.0441 57.4449 33.2614 54.3691 35.4396L61.3044 45.2326C62.4434 44.4259 63.796 43.9752 65.1911 43.9373L64.8653 31.9417ZM54.3691 35.4396C51.2933 37.6179 48.9325 40.6594 47.5852 44.1794L58.7924 48.4689C59.2913 47.1654 60.1655 46.0392 61.3044 45.2326L54.3691 35.4396ZM51.0441 51.9277L55.8272 53.7584L60.1166 42.5513L55.3335 40.7206L51.0441 51.9277ZM63.5755 50.2996C63.7123 49.9421 63.952 49.6333 64.2644 49.4121L57.329 39.6192C55.0798 41.212 53.3535 43.4361 52.3683 46.0101L63.5755 50.2996ZM64.2644 49.4121C64.5767 49.1909 64.9476 49.0673 65.3302 49.0569L65.0043 37.0613C62.2493 37.1361 59.5782 38.0263 57.329 39.6192L64.2644 49.4121ZM65.3302 49.0569C65.7128 49.0465 66.0899 49.1498 66.4138 49.3537L72.8072 39.1987C70.4749 37.7303 67.7594 36.9865 65.0043 37.0613L65.3302 49.0569ZM66.4138 49.3537C66.7377 49.5576 66.9938 49.853 67.1498 50.2025L78.1076 45.3109C76.9841 42.7942 75.1396 40.6671 72.8072 39.1987L66.4138 49.3537ZM75.0745 53.2356L79.7511 51.1479L74.8596 40.1901L70.1829 42.2778L75.0745 53.2356Z" fill="white" mask="url(#path-3-inside-1_252_14)"/>
<path d="M62 1H51C49.3431 1 48 2.34315 48 4V11" stroke="white"/>
<path d="M68 1H78C79.6569 1 81 2.34315 81 4V11" stroke="white"/>
<circle cx="65.5" cy="24.5" r="7.5" fill="#00DD58"/>
</svg>
